<svg width="905" height="413" viewBox="0 0 905 413" fill="none" xmlns="http://www.w3.org/2000/svg">
<path d="M10.239 261V251.2H18.331V261H16.511V252.866H12.059V261H10.239ZM20.6044 263.94V254H22.1864V254.924C22.457 254.583 22.8047 254.31 23.2294 254.105C23.654 253.895 24.1674 253.79 24.7694 253.79C25.446 253.79 26.048 253.949 26.5754 254.266C27.1027 254.583 27.5157 255.022 27.8144 255.582C28.1177 256.137 28.2694 256.777 28.2694 257.5C28.2694 258.018 28.183 258.501 28.0104 258.949C27.8377 259.397 27.595 259.791 27.2824 260.132C26.9697 260.468 26.5964 260.732 26.1624 260.923C25.733 261.114 25.2594 261.21 24.7414 261.21C24.2374 261.21 23.7894 261.124 23.3974 260.951C23.01 260.774 22.674 260.533 22.3894 260.23V263.94H20.6044ZM24.4404 259.642C24.837 259.642 25.1894 259.556 25.4974 259.383C25.8054 259.206 26.048 258.958 26.2254 258.641C26.4027 258.319 26.4914 257.939 26.4914 257.5C26.4914 257.061 26.4027 256.681 26.2254 256.359C26.048 256.037 25.803 255.79 25.4904 255.617C25.1824 255.444 24.8324 255.358 24.4404 255.358C24.0437 255.358 23.6914 255.444 23.3834 255.617C23.0754 255.79 22.8327 256.037 22.6554 256.359C22.478 256.681 22.3894 257.061 22.3894 257.5C22.3894 257.939 22.4757 258.319 22.6484 258.641C22.8257 258.958 23.0684 259.206 23.3764 259.383C23.689 259.556 24.0437 259.642 24.4404 259.642ZM33.0602 261.21C32.3135 261.21 31.6509 261.042 31.0722 260.706C30.4982 260.365 30.0479 259.915 29.7212 259.355C29.3945 258.79 29.2312 258.172 29.2312 257.5C29.2312 257.005 29.3245 256.534 29.5112 256.086C29.6979 255.638 29.9615 255.244 30.3022 254.903C30.6475 254.558 31.0535 254.287 31.5202 254.091C31.9869 253.89 32.5002 253.79 33.0602 253.79C33.8022 253.79 34.4602 253.958 35.0342 254.294C35.6129 254.63 36.0655 255.08 36.3922 255.645C36.7235 256.21 36.8892 256.828 36.8892 257.5C36.8892 257.995 36.7935 258.466 36.6022 258.914C36.4155 259.357 36.1519 259.752 35.8112 260.097C35.4705 260.442 35.0669 260.715 34.6002 260.916C34.1335 261.112 33.6202 261.21 33.0602 261.21ZM33.0602 259.642C33.4522 259.642 33.8022 259.556 34.1102 259.383C34.4229 259.206 34.6679 258.958 34.8452 258.641C35.0225 258.319 35.1112 257.939 35.1112 257.5C35.1112 257.061 35.0225 256.681 34.8452 256.359C34.6679 256.037 34.4252 255.79 34.1172 255.617C33.8092 255.444 33.4569 255.358 33.0602 255.358C32.6635 255.358 32.3089 255.444 31.9962 255.617C31.6882 255.79 31.4455 256.037 31.2682 256.359C31.0955 256.681 31.0092 257.061 31.0092 257.5C31.0092 257.939 31.0979 258.319 31.2752 258.641C31.4525 258.958 31.6952 259.206 32.0032 259.383C32.3112 259.556 32.6635 259.642 33.0602 259.642ZM38.3641 261V254H39.9041H39.9461L42.9841 258.466L42.2141 258.48L45.0911 254H46.6661V261H45.0631L45.0841 256.044L45.4271 256.184L43.0751 259.677H41.9621L39.4911 256.177L39.8271 256.037L39.8551 261H38.3641ZM49.6164 261.21C49.2897 261.21 49.0074 261.107 48.7694 260.902C48.5314 260.692 48.4124 260.414 48.4124 260.069C48.4124 259.836 48.4661 259.633 48.5734 259.46C48.6854 259.287 48.8324 259.154 49.0144 259.061C49.1964 258.968 49.3971 258.921 49.6164 258.921C49.9477 258.921 50.2301 259.026 50.4634 259.236C50.7014 259.441 50.8204 259.719 50.8204 260.069C50.8204 260.298 50.7644 260.498 50.6524 260.671C50.5451 260.844 50.4004 260.977 50.2184 261.07C50.0364 261.163 49.8357 261.21 49.6164 261.21ZM56.6952 264.136C56.4198 264.136 56.1492 264.106 55.8832 264.045C55.6172 263.984 55.3605 263.886 55.1132 263.751L55.5122 262.232C55.6568 262.321 55.8178 262.388 55.9952 262.435C56.1725 262.482 56.3335 262.505 56.4782 262.505C56.7768 262.505 57.0195 262.435 57.2062 262.295C57.3928 262.16 57.5352 261.943 57.6332 261.644L57.8222 261.084L55.0782 254H57.0312L58.8372 259.215L60.5942 254H62.4912L59.5092 261.903C59.2852 262.472 59.0308 262.918 58.7462 263.24C58.4615 263.567 58.1465 263.798 57.8012 263.933C57.4605 264.068 57.0918 264.136 56.6952 264.136ZM66.8094 261.21C66.0674 261.21 65.4071 261.049 64.8284 260.727C64.2544 260.4 63.8017 259.959 63.4704 259.404C63.1391 258.844 62.9734 258.209 62.9734 257.5C62.9734 256.963 63.0714 256.471 63.2674 256.023C63.4634 255.57 63.7387 255.178 64.0934 254.847C64.4481 254.511 64.8634 254.252 65.3394 254.07C65.8201 253.883 66.3427 253.79 66.9074 253.79C67.3974 253.79 67.8524 253.855 68.2724 253.986C68.6924 254.117 69.0774 254.317 69.4274 254.588L68.5944 255.939C68.3751 255.743 68.1254 255.598 67.8454 255.505C67.5701 255.407 67.2807 255.358 66.9774 255.358C66.5201 255.358 66.1257 255.442 65.7944 255.61C65.4677 255.778 65.2157 256.021 65.0384 256.338C64.8611 256.655 64.7724 257.04 64.7724 257.493C64.7724 258.165 64.9684 258.692 65.3604 259.075C65.7571 259.453 66.2961 259.642 66.9774 259.642C67.3181 259.642 67.6401 259.579 67.9434 259.453C68.2467 259.327 68.5104 259.154 68.7344 258.935L69.5324 260.293C69.1497 260.578 68.7227 260.802 68.2514 260.965C67.7801 261.128 67.2994 261.21 66.8094 261.21ZM72.3808 261V255.456H70.1758V254H76.3778V255.456H74.1728V261H72.3808ZM80.6791 261.21C79.9931 261.21 79.3841 261.051 78.8521 260.734C78.3248 260.417 77.9095 259.978 77.6061 259.418C77.3028 258.858 77.1511 258.219 77.1511 257.5C77.1511 256.959 77.2375 256.462 77.4101 256.009C77.5828 255.556 77.8255 255.164 78.1381 254.833C78.4555 254.502 78.8288 254.245 79.2581 254.063C79.6921 253.881 80.1658 253.79 80.6791 253.79C81.3558 253.79 81.9251 253.935 82.3871 254.224C82.8491 254.513 83.1945 254.889 83.4231 255.351L83.1711 255.736V254H84.7461V261H83.1711V259.264L83.4231 259.649C83.1945 260.111 82.8491 260.487 82.3871 260.776C81.9251 261.065 81.3558 261.21 80.6791 261.21ZM80.9451 259.642C81.3325 259.642 81.6778 259.556 81.9811 259.383C82.2845 259.206 82.5248 258.958 82.7021 258.641C82.8795 258.319 82.9681 257.939 82.9681 257.5C82.9681 257.061 82.8795 256.681 82.7021 256.359C82.5248 256.037 82.2845 255.79 81.9811 255.617C81.6778 255.444 81.3325 255.358 80.9451 255.358C80.5578 255.358 80.2101 255.444 79.9021 255.617C79.5988 255.79 79.3585 256.037 79.1811 256.359C79.0085 256.681 78.9221 257.061 78.9221 257.5C78.9221 257.939 79.0085 258.319 79.1811 258.641C79.3585 258.958 79.5988 259.206 79.9021 259.383C80.2101 259.556 80.5578 259.642 80.9451 259.642ZM86.8173 261V254H88.6093V256.639H91.8363V254H93.6283V261H91.8363V258.095H88.6093V261H86.8173ZM98.9313 261.21C98.1846 261.21 97.522 261.042 96.9433 260.706C96.3693 260.365 95.919 259.915 95.5923 259.355C95.2656 258.79 95.1023 258.172 95.1023 257.5C95.1023 257.005 95.1956 256.534 95.3823 256.086C95.569 255.638 95.8326 255.244 96.1733 254.903C96.5186 254.558 96.9246 254.287 97.3913 254.091C97.858 253.89 98.3713 253.79 98.9313 253.79C99.6733 253.79 100.331 253.958 100.905 254.294C101.484 254.63 101.937 255.08 102.263 255.645C102.595 256.21 102.76 256.828 102.76 257.5C102.76 257.995 102.665 258.466 102.473 258.914C102.287 259.357 102.023 259.752 101.682 260.097C101.342 260.442 100.938 260.715 100.471 260.916C100.005 261.112 99.4913 261.21 98.9313 261.21ZM98.9313 259.642C99.3233 259.642 99.6733 259.556 99.9813 259.383C100.294 259.206 100.539 258.958 100.716 258.641C100.894 258.319 100.982 257.939 100.982 257.5C100.982 257.061 100.894 256.681 100.716 256.359C100.539 256.037 100.296 255.79 99.9883 255.617C99.6803 255.444 99.328 255.358 98.9313 255.358C98.5346 255.358 98.18 255.444 97.8673 255.617C97.5593 255.79 97.3166 256.037 97.1393 256.359C96.9666 256.681 96.8803 257.061 96.8803 257.5C96.8803 257.939 96.969 258.319 97.1463 258.641C97.3236 258.958 97.5663 259.206 97.8743 259.383C98.1823 259.556 98.5346 259.642 98.9313 259.642ZM104.235 261V254H107.686C108.494 254 109.133 254.152 109.604 254.455C110.08 254.754 110.318 255.204 110.318 255.806C110.318 256.105 110.244 256.366 110.094 256.59C109.945 256.809 109.742 256.991 109.485 257.136C109.229 257.276 108.937 257.376 108.61 257.437L108.582 257.038C109.222 257.113 109.721 257.316 110.08 257.647C110.44 257.974 110.619 258.394 110.619 258.907C110.619 259.341 110.507 259.714 110.283 260.027C110.064 260.34 109.744 260.58 109.324 260.748C108.904 260.916 108.398 261 107.805 261H104.235ZM105.957 259.726H107.567C107.983 259.726 108.302 259.656 108.526 259.516C108.75 259.371 108.862 259.161 108.862 258.886C108.862 258.615 108.75 258.41 108.526 258.27C108.307 258.13 107.987 258.06 107.567 258.06H105.754V256.842H107.399C107.791 256.842 108.095 256.781 108.309 256.66C108.524 256.534 108.631 256.336 108.631 256.065C108.631 255.79 108.522 255.589 108.302 255.463C108.088 255.337 107.787 255.274 107.399 255.274H105.957V259.726ZM116.88 261L114.612 257.304L116.796 254H118.7L116.537 257.213L119.015 261H116.88ZM112.274 261V254H114.066V256.639H116.18V258.095H114.066V261H112.274ZM123.103 261.21C122.417 261.21 121.808 261.051 121.276 260.734C120.749 260.417 120.333 259.978 120.03 259.418C119.727 258.858 119.575 258.219 119.575 257.5C119.575 256.959 119.661 256.462 119.834 256.009C120.007 255.556 120.249 255.164 120.562 254.833C120.879 254.502 121.253 254.245 121.682 254.063C122.116 253.881 122.59 253.79 123.103 253.79C123.78 253.79 124.349 253.935 124.811 254.224C125.273 254.513 125.618 254.889 125.847 255.351L125.595 255.736V254H127.17V261H125.595V259.264L125.847 259.649C125.618 260.111 125.273 260.487 124.811 260.776C124.349 261.065 123.78 261.21 123.103 261.21ZM123.369 259.642C123.756 259.642 124.102 259.556 124.405 259.383C124.708 259.206 124.949 258.958 125.126 258.641C125.303 258.319 125.392 257.939 125.392 257.5C125.392 257.061 125.303 256.681 125.126 256.359C124.949 256.037 124.708 255.79 124.405 255.617C124.102 255.444 123.756 255.358 123.369 255.358C122.982 255.358 122.634 255.444 122.326 255.617C122.023 255.79 121.782 256.037 121.605 256.359C121.432 256.681 121.346 257.061 121.346 257.5C121.346 257.939 121.432 258.319 121.605 258.641C121.782 258.958 122.023 259.206 122.326 259.383C122.634 259.556 122.982 259.642 123.369 259.642Z" fill="#1A1A19"/>
<path d="M211.753 15L208.162 9.841L211.368 5.2H213.447L210.206 9.834L213.909 15H211.753ZM200.231 15L203.913 9.932L200.721 5.2H202.863L205.957 9.855L202.31 15H200.231ZM206.16 15V10.597H204.515V9.057H206.16V5.2H207.98V9.057H209.625V10.597H207.98V15H206.16ZM215.173 15V8H216.895V12.424L220.43 8H222.012V15H220.29V10.52L216.734 15H215.173ZM229.092 15V9.456H226.544V10.233C226.544 10.8303 226.502 11.3833 226.418 11.892C226.339 12.4007 226.196 12.8533 225.991 13.25C225.786 13.6467 225.501 13.9803 225.137 14.251C224.773 14.517 224.309 14.7083 223.744 14.825L223.345 13.6C223.779 13.4973 224.106 13.299 224.325 13.005C224.549 12.7063 224.698 12.3237 224.773 11.857C224.852 11.3903 224.892 10.849 224.892 10.233V8H230.884V15H229.092ZM223.345 17.1V13.6L224.381 13.691L224.661 13.544H232.291V17.1H230.653V15H224.983V17.1H223.345ZM238.195 15L235.927 11.304L238.111 8H240.015L237.852 11.213L240.33 15H238.195ZM233.589 15V8H235.381V10.639H237.495V12.095H235.381V15H233.589ZM244.417 15.21C243.731 15.21 243.122 15.0513 242.59 14.734C242.063 14.4167 241.648 13.978 241.344 13.418C241.041 12.858 240.889 12.2187 240.889 11.5C240.889 10.9587 240.976 10.4617 241.148 10.009C241.321 9.55633 241.564 9.16433 241.876 8.833C242.194 8.50167 242.567 8.245 242.996 8.063C243.43 7.881 243.904 7.79 244.417 7.79C245.094 7.79 245.663 7.93467 246.125 8.224C246.587 8.51333 246.933 8.889 247.161 9.351L246.909 9.736V8H248.484V15H246.909V13.264L247.161 13.649C246.933 14.111 246.587 14.4867 246.125 14.776C245.663 15.0653 245.094 15.21 244.417 15.21ZM244.683 13.642C245.071 13.642 245.416 13.5557 245.719 13.383C246.023 13.2057 246.263 12.9583 246.44 12.641C246.618 12.319 246.706 11.9387 246.706 11.5C246.706 11.0613 246.618 10.681 246.44 10.359C246.263 10.037 246.023 9.78967 245.719 9.617C245.416 9.44433 245.071 9.358 244.683 9.358C244.296 9.358 243.948 9.44433 243.64 9.617C243.337 9.78967 243.097 10.037 242.919 10.359C242.747 10.681 242.66 11.0613 242.66 11.5C242.66 11.9387 242.747 12.319 242.919 12.641C243.097 12.9583 243.337 13.2057 243.64 13.383C243.948 13.5557 244.296 13.642 244.683 13.642ZM250.052 15L252.649 11.374L253.076 12.501C252.506 12.501 252.016 12.4147 251.606 12.242C251.195 12.0647 250.878 11.8127 250.654 11.486C250.43 11.1593 250.318 10.772 250.318 10.324C250.318 9.83867 250.437 9.42333 250.675 9.078C250.917 8.728 251.26 8.462 251.704 8.28C252.147 8.09333 252.667 8 253.265 8H256.408V15H254.693V9.316H253.454C253.01 9.316 252.672 9.39767 252.439 9.561C252.21 9.71967 252.096 9.95767 252.096 10.275C252.096 10.583 252.201 10.8233 252.411 10.996C252.625 11.1687 252.933 11.255 253.335 11.255H254.896V12.515H253.811L252.054 15H250.052ZM265.328 17.94V4.92H267.12V17.94H265.328ZM266.203 15.182C265.185 15.182 264.306 15.0397 263.564 14.755C262.822 14.4703 262.25 14.055 261.849 13.509C261.447 12.9583 261.247 12.2887 261.247 11.5C261.247 10.7067 261.45 10.037 261.856 9.491C262.266 8.94033 262.845 8.525 263.592 8.245C264.343 7.96033 265.23 7.818 266.252 7.818C267.274 7.818 268.156 7.958 268.898 8.238C269.644 8.518 270.218 8.93333 270.62 9.484C271.021 10.03 271.222 10.702 271.222 11.5C271.222 12.0973 271.103 12.6247 270.865 13.082C270.631 13.5393 270.293 13.9243 269.85 14.237C269.411 14.545 268.884 14.7807 268.268 14.944C267.652 15.1027 266.963 15.182 266.203 15.182ZM266.238 13.719C266.947 13.719 267.54 13.6373 268.016 13.474C268.492 13.306 268.849 13.0587 269.087 12.732C269.325 12.4053 269.444 11.9947 269.444 11.5C269.444 11.0053 269.32 10.5947 269.073 10.268C268.83 9.93667 268.468 9.68933 267.988 9.526C267.512 9.36267 266.921 9.281 266.217 9.281C265.512 9.281 264.922 9.36267 264.446 9.526C263.97 9.68933 263.61 9.93667 263.368 10.268C263.13 10.5947 263.011 11.0053 263.011 11.5C263.011 11.9947 263.132 12.4053 263.375 12.732C263.617 13.0587 263.977 13.306 264.453 13.474C264.933 13.6373 265.528 13.719 266.238 13.719ZM276.013 15.21C275.267 15.21 274.604 15.042 274.025 14.706C273.451 14.3653 273.001 13.915 272.674 13.355C272.348 12.7903 272.184 12.172 272.184 11.5C272.184 11.0053 272.278 10.534 272.464 10.086C272.651 9.638 272.915 9.24367 273.255 8.903C273.601 8.55767 274.007 8.287 274.473 8.091C274.94 7.89033 275.453 7.79 276.013 7.79C276.755 7.79 277.413 7.958 277.987 8.294C278.566 8.63 279.019 9.08033 279.345 9.645C279.677 10.2097 279.842 10.828 279.842 11.5C279.842 11.9947 279.747 12.466 279.555 12.914C279.369 13.3573 279.105 13.7517 278.764 14.097C278.424 14.4423 278.02 14.7153 277.553 14.916C277.087 15.112 276.573 15.21 276.013 15.21ZM276.013 13.642C276.405 13.642 276.755 13.5557 277.063 13.383C277.376 13.2057 277.621 12.9583 277.798 12.641C277.976 12.319 278.064 11.9387 278.064 11.5C278.064 11.0613 277.976 10.681 277.798 10.359C277.621 10.037 277.378 9.78967 277.07 9.617C276.762 9.44433 276.41 9.358 276.013 9.358C275.617 9.358 275.262 9.44433 274.949 9.617C274.641 9.78967 274.399 10.037 274.221 10.359C274.049 10.681 273.962 11.0613 273.962 11.5C273.962 11.9387 274.051 12.319 274.228 12.641C274.406 12.9583 274.648 13.2057 274.956 13.383C275.264 13.5557 275.617 13.642 276.013 13.642ZM281.317 17.94V8H282.899V8.924C283.17 8.58333 283.518 8.31033 283.942 8.105C284.367 7.895 284.88 7.79 285.482 7.79C286.159 7.79 286.761 7.94867 287.288 8.266C287.816 8.58333 288.229 9.022 288.527 9.582C288.831 10.1373 288.982 10.7767 288.982 11.5C288.982 12.018 288.896 12.501 288.723 12.949C288.551 13.397 288.308 13.7913 287.995 14.132C287.683 14.468 287.309 14.7317 286.875 14.923C286.446 15.1143 285.972 15.21 285.454 15.21C284.95 15.21 284.502 15.1237 284.11 14.951C283.723 14.7737 283.387 14.5333 283.102 14.23V17.94H281.317ZM285.153 13.642C285.55 13.642 285.902 13.5557 286.21 13.383C286.518 13.2057 286.761 12.9583 286.938 12.641C287.116 12.319 287.204 11.9387 287.204 11.5C287.204 11.0613 287.116 10.681 286.938 10.359C286.761 10.037 286.516 9.78967 286.203 9.617C285.895 9.44433 285.545 9.358 285.153 9.358C284.757 9.358 284.404 9.44433 284.096 9.617C283.788 9.78967 283.546 10.037 283.368 10.359C283.191 10.681 283.102 11.0613 283.102 11.5C283.102 11.9387 283.189 12.319 283.361 12.641C283.539 12.9583 283.781 13.2057 284.089 13.383C284.402 13.5557 284.757 13.642 285.153 13.642ZM290.464 15V8H292.004H292.046L295.084 12.466L294.314 12.48L297.191 8H298.766V15H297.163L297.184 10.044L297.527 10.184L295.175 13.677H294.062L291.591 10.177L291.927 10.037L291.955 15H290.464ZM303.767 15.21C303.081 15.21 302.472 15.0513 301.94 14.734C301.413 14.4167 300.997 13.978 300.694 13.418C300.391 12.858 300.239 12.2187 300.239 11.5C300.239 10.9587 300.325 10.4617 300.498 10.009C300.671 9.55633 300.913 9.16433 301.226 8.833C301.543 8.50167 301.917 8.245 302.346 8.063C302.78 7.881 303.254 7.79 303.767 7.79C304.444 7.79 305.013 7.93467 305.475 8.224C305.937 8.51333 306.282 8.889 306.511 9.351L306.259 9.736V8H307.834V15H306.259V13.264L306.511 13.649C306.282 14.111 305.937 14.4867 305.475 14.776C305.013 15.0653 304.444 15.21 303.767 15.21ZM304.033 13.642C304.42 13.642 304.766 13.5557 305.069 13.383C305.372 13.2057 305.613 12.9583 305.79 12.641C305.967 12.319 306.056 11.9387 306.056 11.5C306.056 11.0613 305.967 10.681 305.79 10.359C305.613 10.037 305.372 9.78967 305.069 9.617C304.766 9.44433 304.42 9.358 304.033 9.358C303.646 9.358 303.298 9.44433 302.99 9.617C302.687 9.78967 302.446 10.037 302.269 10.359C302.096 10.681 302.01 11.0613 302.01 11.5C302.01 11.9387 302.096 12.319 302.269 12.641C302.446 12.9583 302.687 13.2057 302.99 13.383C303.298 13.5557 303.646 13.642 304.033 13.642Z" fill="#1A1A19"/>
<path d="M377.726 15.21C376.709 15.21 375.817 15 375.052 14.58C374.287 14.16 373.692 13.5697 373.267 12.809C372.842 12.0437 372.63 11.1453 372.63 10.114C372.63 9.36267 372.754 8.67667 373.001 8.056C373.253 7.43067 373.608 6.88933 374.065 6.432C374.527 5.97 375.068 5.61533 375.689 5.368C376.314 5.116 377 4.99 377.747 4.99C378.517 4.99 379.175 5.088 379.721 5.284C380.267 5.47533 380.752 5.74833 381.177 6.103L380.246 7.594C379.947 7.30933 379.597 7.09933 379.196 6.964C378.799 6.824 378.358 6.754 377.873 6.754C377.355 6.754 376.891 6.831 376.48 6.985C376.069 7.139 375.719 7.363 375.43 7.657C375.141 7.94633 374.919 8.29633 374.765 8.707C374.611 9.11767 374.534 9.57967 374.534 10.093C374.534 10.7977 374.672 11.3997 374.947 11.899C375.222 12.3937 375.614 12.774 376.123 13.04C376.632 13.306 377.236 13.439 377.936 13.439C378.407 13.439 378.867 13.3667 379.315 13.222C379.768 13.0773 380.195 12.8463 380.596 12.529L381.436 14.062C380.969 14.426 380.428 14.7083 379.812 14.909C379.201 15.1097 378.505 15.21 377.726 15.21ZM386.591 15V12.095H384.659V10.639H386.591V8H388.383V10.639H390.301V12.095H388.383V15H386.591ZM382.048 15L384.225 11.304L382.244 8H384.197L386.15 11.304L384.078 15H382.048ZM390.847 15L388.817 11.304L390.833 8H392.723L390.742 11.213L392.968 15H390.847ZM397.058 15.21C396.372 15.21 395.763 15.0513 395.231 14.734C394.704 14.4167 394.288 13.978 393.985 13.418C393.682 12.858 393.53 12.2187 393.53 11.5C393.53 10.9587 393.616 10.4617 393.789 10.009C393.962 9.55633 394.204 9.16433 394.517 8.833C394.834 8.50167 395.208 8.245 395.637 8.063C396.071 7.881 396.545 7.79 397.058 7.79C397.735 7.79 398.304 7.93467 398.766 8.224C399.228 8.51333 399.573 8.889 399.802 9.351L399.55 9.736V8H401.125V15H399.55V13.264L399.802 13.649C399.573 14.111 399.228 14.4867 398.766 14.776C398.304 15.0653 397.735 15.21 397.058 15.21ZM397.324 13.642C397.711 13.642 398.057 13.5557 398.36 13.383C398.663 13.2057 398.904 12.9583 399.081 12.641C399.258 12.319 399.347 11.9387 399.347 11.5C399.347 11.0613 399.258 10.681 399.081 10.359C398.904 10.037 398.663 9.78967 398.36 9.617C398.057 9.44433 397.711 9.358 397.324 9.358C396.937 9.358 396.589 9.44433 396.281 9.617C395.978 9.78967 395.737 10.037 395.56 10.359C395.387 10.681 395.301 11.0613 395.301 11.5C395.301 11.9387 395.387 12.319 395.56 12.641C395.737 12.9583 395.978 13.2057 396.281 13.383C396.589 13.5557 396.937 13.642 397.324 13.642ZM404.701 15V9.456H402.496V8H408.698V9.456H406.493V15H404.701ZM412.999 15.21C412.313 15.21 411.704 15.0513 411.172 14.734C410.645 14.4167 410.23 13.978 409.926 13.418C409.623 12.858 409.471 12.2187 409.471 11.5C409.471 10.9587 409.558 10.4617 409.73 10.009C409.903 9.55633 410.146 9.16433 410.458 8.833C410.776 8.50167 411.149 8.245 411.578 8.063C412.012 7.881 412.486 7.79 412.999 7.79C413.676 7.79 414.245 7.93467 414.707 8.224C415.169 8.51333 415.515 8.889 415.743 9.351L415.491 9.736V8H417.066V15H415.491V13.264L415.743 13.649C415.515 14.111 415.169 14.4867 414.707 14.776C414.245 15.0653 413.676 15.21 412.999 15.21ZM413.265 13.642C413.653 13.642 413.998 13.5557 414.301 13.383C414.605 13.2057 414.845 12.9583 415.022 12.641C415.2 12.319 415.288 11.9387 415.288 11.5C415.288 11.0613 415.2 10.681 415.022 10.359C414.845 10.037 414.605 9.78967 414.301 9.617C413.998 9.44433 413.653 9.358 413.265 9.358C412.878 9.358 412.53 9.44433 412.222 9.617C411.919 9.78967 411.679 10.037 411.501 10.359C411.329 10.681 411.242 11.0613 411.242 11.5C411.242 11.9387 411.329 12.319 411.501 12.641C411.679 12.9583 411.919 13.2057 412.222 13.383C412.53 13.5557 412.878 13.642 413.265 13.642ZM418.634 15L421.231 11.374L421.658 12.501C421.088 12.501 420.598 12.4147 420.188 12.242C419.777 12.0647 419.46 11.8127 419.236 11.486C419.012 11.1593 418.9 10.772 418.9 10.324C418.9 9.83867 419.019 9.42333 419.257 9.078C419.499 8.728 419.842 8.462 420.286 8.28C420.729 8.09333 421.249 8 421.847 8H424.99V15H423.275V9.316H422.036C421.592 9.316 421.254 9.39767 421.021 9.561C420.792 9.71967 420.678 9.95767 420.678 10.275C420.678 10.583 420.783 10.8233 420.993 10.996C421.207 11.1687 421.515 11.255 421.917 11.255H423.478V12.515H422.393L420.636 15H418.634ZM433.91 17.94V4.92H435.702V17.94H433.91ZM434.785 15.182C433.768 15.182 432.888 15.0397 432.146 14.755C431.404 14.4703 430.832 14.055 430.431 13.509C430.03 12.9583 429.829 12.2887 429.829 11.5C429.829 10.7067 430.032 10.037 430.438 9.491C430.849 8.94033 431.427 8.525 432.174 8.245C432.925 7.96033 433.812 7.818 434.834 7.818C435.856 7.818 436.738 7.958 437.48 8.238C438.227 8.518 438.801 8.93333 439.202 9.484C439.603 10.03 439.804 10.702 439.804 11.5C439.804 12.0973 439.685 12.6247 439.447 13.082C439.214 13.5393 438.875 13.9243 438.432 14.237C437.993 14.545 437.466 14.7807 436.85 14.944C436.234 15.1027 435.546 15.182 434.785 15.182ZM434.82 13.719C435.529 13.719 436.122 13.6373 436.598 13.474C437.074 13.306 437.431 13.0587 437.669 12.732C437.907 12.4053 438.026 11.9947 438.026 11.5C438.026 11.0053 437.902 10.5947 437.655 10.268C437.412 9.93667 437.051 9.68933 436.57 9.526C436.094 9.36267 435.504 9.281 434.799 9.281C434.094 9.281 433.504 9.36267 433.028 9.526C432.552 9.68933 432.193 9.93667 431.95 10.268C431.712 10.5947 431.593 11.0053 431.593 11.5C431.593 11.9947 431.714 12.4053 431.957 12.732C432.2 13.0587 432.559 13.306 433.035 13.474C433.516 13.6373 434.111 13.719 434.82 13.719ZM444.595 15.21C443.849 15.21 443.186 15.042 442.607 14.706C442.033 14.3653 441.583 13.915 441.256 13.355C440.93 12.7903 440.766 12.172 440.766 11.5C440.766 11.0053 440.86 10.534 441.046 10.086C441.233 9.638 441.497 9.24367 441.837 8.903C442.183 8.55767 442.589 8.287 443.055 8.091C443.522 7.89033 444.035 7.79 444.595 7.79C445.337 7.79 445.995 7.958 446.569 8.294C447.148 8.63 447.601 9.08033 447.927 9.645C448.259 10.2097 448.424 10.828 448.424 11.5C448.424 11.9947 448.329 12.466 448.137 12.914C447.951 13.3573 447.687 13.7517 447.346 14.097C447.006 14.4423 446.602 14.7153 446.135 14.916C445.669 15.112 445.155 15.21 444.595 15.21ZM444.595 13.642C444.987 13.642 445.337 13.5557 445.645 13.383C445.958 13.2057 446.203 12.9583 446.38 12.641C446.558 12.319 446.646 11.9387 446.646 11.5C446.646 11.0613 446.558 10.681 446.38 10.359C446.203 10.037 445.96 9.78967 445.652 9.617C445.344 9.44433 444.992 9.358 444.595 9.358C444.199 9.358 443.844 9.44433 443.531 9.617C443.223 9.78967 442.981 10.037 442.803 10.359C442.631 10.681 442.544 11.0613 442.544 11.5C442.544 11.9387 442.633 12.319 442.81 12.641C442.988 12.9583 443.23 13.2057 443.538 13.383C443.846 13.5557 444.199 13.642 444.595 13.642ZM449.899 17.94V8H451.481V8.924C451.752 8.58333 452.1 8.31033 452.524 8.105C452.949 7.895 453.462 7.79 454.064 7.79C454.741 7.79 455.343 7.94867 455.87 8.266C456.398 8.58333 456.811 9.022 457.109 9.582C457.413 10.1373 457.564 10.7767 457.564 11.5C457.564 12.018 457.478 12.501 457.305 12.949C457.133 13.397 456.89 13.7913 456.577 14.132C456.265 14.468 455.891 14.7317 455.457 14.923C455.028 15.1143 454.554 15.21 454.036 15.21C453.532 15.21 453.084 15.1237 452.692 14.951C452.305 14.7737 451.969 14.5333 451.684 14.23V17.94H449.899ZM453.735 13.642C454.132 13.642 454.484 13.5557 454.792 13.383C455.1 13.2057 455.343 12.9583 455.52 12.641C455.698 12.319 455.786 11.9387 455.786 11.5C455.786 11.0613 455.698 10.681 455.52 10.359C455.343 10.037 455.098 9.78967 454.785 9.617C454.477 9.44433 454.127 9.358 453.735 9.358C453.339 9.358 452.986 9.44433 452.678 9.617C452.37 9.78967 452.128 10.037 451.95 10.359C451.773 10.681 451.684 11.0613 451.684 11.5C451.684 11.9387 451.771 12.319 451.943 12.641C452.121 12.9583 452.363 13.2057 452.671 13.383C452.984 13.5557 453.339 13.642 453.735 13.642ZM459.046 15V8H460.586H460.628L463.666 12.466L462.896 12.48L465.773 8H467.348V15H465.745L465.766 10.044L466.109 10.184L463.757 13.677H462.644L460.173 10.177L460.509 10.037L460.537 15H459.046ZM472.349 15.21C471.663 15.21 471.054 15.0513 470.522 14.734C469.995 14.4167 469.579 13.978 469.276 13.418C468.973 12.858 468.821 12.2187 468.821 11.5C468.821 10.9587 468.907 10.4617 469.08 10.009C469.253 9.55633 469.495 9.16433 469.808 8.833C470.125 8.50167 470.499 8.245 470.928 8.063C471.362 7.881 471.836 7.79 472.349 7.79C473.026 7.79 473.595 7.93467 474.057 8.224C474.519 8.51333 474.864 8.889 475.093 9.351L474.841 9.736V8H476.416V15H474.841V13.264L475.093 13.649C474.864 14.111 474.519 14.4867 474.057 14.776C473.595 15.0653 473.026 15.21 472.349 15.21ZM472.615 13.642C473.002 13.642 473.348 13.5557 473.651 13.383C473.954 13.2057 474.195 12.9583 474.372 12.641C474.549 12.319 474.638 11.9387 474.638 11.5C474.638 11.0613 474.549 10.681 474.372 10.359C474.195 10.037 473.954 9.78967 473.651 9.617C473.348 9.44433 473.002 9.358 472.615 9.358C472.228 9.358 471.88 9.44433 471.572 9.617C471.269 9.78967 471.028 10.037 470.851 10.359C470.678 10.681 470.592 11.0613 470.592 11.5C470.592 11.9387 470.678 12.319 470.851 12.641C471.028 12.9583 471.269 13.2057 471.572 13.383C471.88 13.5557 472.228 13.642 472.615 13.642Z" fill="#1A1A19"/>
<path d="M572.726 15.21C571.709 15.21 570.817 15 570.052 14.58C569.287 14.16 568.692 13.5697 568.267 12.809C567.842 12.0437 567.63 11.1453 567.63 10.114C567.63 9.36267 567.754 8.67667 568.001 8.056C568.253 7.43067 568.608 6.88933 569.065 6.432C569.527 5.97 570.068 5.61533 570.689 5.368C571.314 5.116 572 4.99 572.747 4.99C573.517 4.99 574.175 5.088 574.721 5.284C575.267 5.47533 575.752 5.74833 576.177 6.103L575.246 7.594C574.947 7.30933 574.597 7.09933 574.196 6.964C573.799 6.824 573.358 6.754 572.873 6.754C572.355 6.754 571.891 6.831 571.48 6.985C571.069 7.139 570.719 7.363 570.43 7.657C570.141 7.94633 569.919 8.29633 569.765 8.707C569.611 9.11767 569.534 9.57967 569.534 10.093C569.534 10.7977 569.672 11.3997 569.947 11.899C570.222 12.3937 570.614 12.774 571.123 13.04C571.632 13.306 572.236 13.439 572.936 13.439C573.407 13.439 573.867 13.3667 574.315 13.222C574.768 13.0773 575.195 12.8463 575.596 12.529L576.436 14.062C575.969 14.426 575.428 14.7083 574.812 14.909C574.201 15.1097 573.505 15.21 572.726 15.21ZM577.811 15V8H581.262C582.07 8 582.709 8.15167 583.18 8.455C583.656 8.75367 583.894 9.204 583.894 9.806C583.894 10.1047 583.82 10.366 583.67 10.59C583.521 10.8093 583.318 10.9913 583.061 11.136C582.805 11.276 582.513 11.3763 582.186 11.437L582.158 11.038C582.798 11.1127 583.297 11.3157 583.656 11.647C584.016 11.9737 584.195 12.3937 584.195 12.907C584.195 13.341 584.083 13.7143 583.859 14.027C583.64 14.3397 583.32 14.58 582.9 14.748C582.48 14.916 581.974 15 581.381 15H577.811ZM579.533 13.726H581.143C581.559 13.726 581.878 13.656 582.102 13.516C582.326 13.3713 582.438 13.1613 582.438 12.886C582.438 12.6153 582.326 12.41 582.102 12.27C581.883 12.13 581.563 12.06 581.143 12.06H579.33V10.842H580.975C581.367 10.842 581.671 10.7813 581.885 10.66C582.1 10.534 582.207 10.3357 582.207 10.065C582.207 9.78967 582.098 9.589 581.878 9.463C581.664 9.337 581.363 9.274 580.975 9.274H579.533V13.726ZM585.346 15L587.943 11.374L588.37 12.501C587.801 12.501 587.311 12.4147 586.9 12.242C586.49 12.0647 586.172 11.8127 585.948 11.486C585.724 11.1593 585.612 10.772 585.612 10.324C585.612 9.83867 585.731 9.42333 585.969 9.078C586.212 8.728 586.555 8.462 586.998 8.28C587.442 8.09333 587.962 8 588.559 8H591.702V15H589.987V9.316H588.748C588.305 9.316 587.967 9.39767 587.733 9.561C587.505 9.71967 587.39 9.95767 587.39 10.275C587.39 10.583 587.495 10.8233 587.705 10.996C587.92 11.1687 588.228 11.255 588.629 11.255H590.19V12.515H589.105L587.348 15H585.346ZM596.167 15.175C595.775 15.175 595.395 15.1447 595.026 15.084C594.658 15.028 594.31 14.937 593.983 14.811C593.661 14.6803 593.37 14.51 593.108 14.3L593.85 13.124C594.14 13.3667 594.483 13.544 594.879 13.656C595.276 13.768 595.682 13.824 596.097 13.824C596.629 13.824 597.045 13.7493 597.343 13.6C597.647 13.446 597.798 13.1963 597.798 12.851C597.798 12.5477 597.642 12.333 597.329 12.207C597.021 12.081 596.566 12.018 595.964 12.018H594.676V10.716H595.915C596.452 10.716 596.858 10.6553 597.133 10.534C597.413 10.4127 597.553 10.2097 597.553 9.925C597.553 9.75233 597.493 9.61 597.371 9.498C597.25 9.38133 597.075 9.295 596.846 9.239C596.622 9.17833 596.359 9.148 596.055 9.148C595.659 9.148 595.278 9.20633 594.914 9.323C594.55 9.43967 594.233 9.61933 593.962 9.862L593.318 8.679C593.696 8.37567 594.142 8.147 594.655 7.993C595.173 7.839 595.691 7.762 596.209 7.762C596.825 7.762 597.355 7.83667 597.798 7.986C598.242 8.13533 598.58 8.35233 598.813 8.637C599.051 8.92167 599.17 9.267 599.17 9.673C599.17 10.0183 599.061 10.324 598.841 10.59C598.627 10.8513 598.309 11.0403 597.889 11.157C598.403 11.2783 598.792 11.486 599.058 11.78C599.324 12.0693 599.457 12.438 599.457 12.886C599.457 13.3527 599.322 13.7587 599.051 14.104C598.785 14.4447 598.405 14.7083 597.91 14.895C597.42 15.0817 596.839 15.175 596.167 15.175ZM604.021 15.21C603.335 15.21 602.726 15.0513 602.194 14.734C601.667 14.4167 601.251 13.978 600.948 13.418C600.645 12.858 600.493 12.2187 600.493 11.5C600.493 10.9587 600.579 10.4617 600.752 10.009C600.925 9.55633 601.167 9.16433 601.48 8.833C601.797 8.50167 602.171 8.245 602.6 8.063C603.034 7.881 603.508 7.79 604.021 7.79C604.698 7.79 605.267 7.93467 605.729 8.224C606.191 8.51333 606.536 8.889 606.765 9.351L606.513 9.736V8H608.088V15H606.513V13.264L606.765 13.649C606.536 14.111 606.191 14.4867 605.729 14.776C605.267 15.0653 604.698 15.21 604.021 15.21ZM604.287 13.642C604.674 13.642 605.02 13.5557 605.323 13.383C605.626 13.2057 605.867 12.9583 606.044 12.641C606.221 12.319 606.31 11.9387 606.31 11.5C606.31 11.0613 606.221 10.681 606.044 10.359C605.867 10.037 605.626 9.78967 605.323 9.617C605.02 9.44433 604.674 9.358 604.287 9.358C603.9 9.358 603.552 9.44433 603.244 9.617C602.941 9.78967 602.7 10.037 602.523 10.359C602.35 10.681 602.264 11.0613 602.264 11.5C602.264 11.9387 602.35 12.319 602.523 12.641C602.7 12.9583 602.941 13.2057 603.244 13.383C603.552 13.5557 603.9 13.642 604.287 13.642ZM610.159 15V8H611.951V10.639H615.178V8H616.97V15H615.178V12.095H611.951V15H610.159ZM619.032 15V8H620.824V10.639H624.051V8H625.843V15H624.051V12.095H620.824V15H619.032ZM630.845 15.21C630.159 15.21 629.55 15.0513 629.018 14.734C628.491 14.4167 628.075 13.978 627.772 13.418C627.469 12.858 627.317 12.2187 627.317 11.5C627.317 10.9587 627.403 10.4617 627.576 10.009C627.749 9.55633 627.991 9.16433 628.304 8.833C628.621 8.50167 628.995 8.245 629.424 8.063C629.858 7.881 630.332 7.79 630.845 7.79C631.522 7.79 632.091 7.93467 632.553 8.224C633.015 8.51333 633.36 8.889 633.589 9.351L633.337 9.736V8H634.912V15H633.337V13.264L633.589 13.649C633.36 14.111 633.015 14.4867 632.553 14.776C632.091 15.0653 631.522 15.21 630.845 15.21ZM631.111 13.642C631.498 13.642 631.844 13.5557 632.147 13.383C632.45 13.2057 632.691 12.9583 632.868 12.641C633.045 12.319 633.134 11.9387 633.134 11.5C633.134 11.0613 633.045 10.681 632.868 10.359C632.691 10.037 632.45 9.78967 632.147 9.617C631.844 9.44433 631.498 9.358 631.111 9.358C630.724 9.358 630.376 9.44433 630.068 9.617C629.765 9.78967 629.524 10.037 629.347 10.359C629.174 10.681 629.088 11.0613 629.088 11.5C629.088 11.9387 629.174 12.319 629.347 12.641C629.524 12.9583 629.765 13.2057 630.068 13.383C630.376 13.5557 630.724 13.642 631.111 13.642ZM636.479 15L639.076 11.374L639.503 12.501C638.934 12.501 638.444 12.4147 638.033 12.242C637.623 12.0647 637.305 11.8127 637.081 11.486C636.857 11.1593 636.745 10.772 636.745 10.324C636.745 9.83867 636.864 9.42333 637.102 9.078C637.345 8.728 637.688 8.462 638.131 8.28C638.575 8.09333 639.095 8 639.692 8H642.835V15H641.12V9.316H639.881C639.438 9.316 639.1 9.39767 638.866 9.561C638.638 9.71967 638.523 9.95767 638.523 10.275C638.523 10.583 638.628 10.8233 638.838 10.996C639.053 11.1687 639.361 11.255 639.762 11.255H641.323V12.515H640.238L638.481 15H636.479ZM651.756 17.94V4.92H653.548V17.94H651.756ZM652.631 15.182C651.613 15.182 650.734 15.0397 649.992 14.755C649.25 14.4703 648.678 14.055 648.277 13.509C647.875 12.9583 647.675 12.2887 647.675 11.5C647.675 10.7067 647.878 10.037 648.284 9.491C648.694 8.94033 649.273 8.525 650.02 8.245C650.771 7.96033 651.658 7.818 652.68 7.818C653.702 7.818 654.584 7.958 655.326 8.238C656.072 8.518 656.646 8.93333 657.048 9.484C657.449 10.03 657.65 10.702 657.65 11.5C657.65 12.0973 657.531 12.6247 657.293 13.082C657.059 13.5393 656.721 13.9243 656.278 14.237C655.839 14.545 655.312 14.7807 654.696 14.944C654.08 15.1027 653.391 15.182 652.631 15.182ZM652.666 13.719C653.375 13.719 653.968 13.6373 654.444 13.474C654.92 13.306 655.277 13.0587 655.515 12.732C655.753 12.4053 655.872 11.9947 655.872 11.5C655.872 11.0053 655.748 10.5947 655.501 10.268C655.258 9.93667 654.896 9.68933 654.416 9.526C653.94 9.36267 653.349 9.281 652.645 9.281C651.94 9.281 651.35 9.36267 650.874 9.526C650.398 9.68933 650.038 9.93667 649.796 10.268C649.558 10.5947 649.439 11.0053 649.439 11.5C649.439 11.9947 649.56 12.4053 649.803 12.732C650.045 13.0587 650.405 13.306 650.881 13.474C651.361 13.6373 651.956 13.719 652.666 13.719ZM662.441 15.21C661.694 15.21 661.032 15.042 660.453 14.706C659.879 14.3653 659.429 13.915 659.102 13.355C658.775 12.7903 658.612 12.172 658.612 11.5C658.612 11.0053 658.705 10.534 658.892 10.086C659.079 9.638 659.342 9.24367 659.683 8.903C660.028 8.55767 660.434 8.287 660.901 8.091C661.368 7.89033 661.881 7.79 662.441 7.79C663.183 7.79 663.841 7.958 664.415 8.294C664.994 8.63 665.446 9.08033 665.773 9.645C666.104 10.2097 666.27 10.828 666.27 11.5C666.27 11.9947 666.174 12.466 665.983 12.914C665.796 13.3573 665.533 13.7517 665.192 14.097C664.851 14.4423 664.448 14.7153 663.981 14.916C663.514 15.112 663.001 15.21 662.441 15.21ZM662.441 13.642C662.833 13.642 663.183 13.5557 663.491 13.383C663.804 13.2057 664.049 12.9583 664.226 12.641C664.403 12.319 664.492 11.9387 664.492 11.5C664.492 11.0613 664.403 10.681 664.226 10.359C664.049 10.037 663.806 9.78967 663.498 9.617C663.19 9.44433 662.838 9.358 662.441 9.358C662.044 9.358 661.69 9.44433 661.377 9.617C661.069 9.78967 660.826 10.037 660.649 10.359C660.476 10.681 660.39 11.0613 660.39 11.5C660.39 11.9387 660.479 12.319 660.656 12.641C660.833 12.9583 661.076 13.2057 661.384 13.383C661.692 13.5557 662.044 13.642 662.441 13.642ZM667.745 17.94V8H669.327V8.924C669.598 8.58333 669.945 8.31033 670.37 8.105C670.795 7.895 671.308 7.79 671.91 7.79C672.587 7.79 673.189 7.94867 673.716 8.266C674.243 8.58333 674.656 9.022 674.955 9.582C675.258 10.1373 675.41 10.7767 675.41 11.5C675.41 12.018 675.324 12.501 675.151 12.949C674.978 13.397 674.736 13.7913 674.423 14.132C674.11 14.468 673.737 14.7317 673.303 14.923C672.874 15.1143 672.4 15.21 671.882 15.21C671.378 15.21 670.93 15.1237 670.538 14.951C670.151 14.7737 669.815 14.5333 669.53 14.23V17.94H667.745ZM671.581 13.642C671.978 13.642 672.33 13.5557 672.638 13.383C672.946 13.2057 673.189 12.9583 673.366 12.641C673.543 12.319 673.632 11.9387 673.632 11.5C673.632 11.0613 673.543 10.681 673.366 10.359C673.189 10.037 672.944 9.78967 672.631 9.617C672.323 9.44433 671.973 9.358 671.581 9.358C671.184 9.358 670.832 9.44433 670.524 9.617C670.216 9.78967 669.973 10.037 669.796 10.359C669.619 10.681 669.53 11.0613 669.53 11.5C669.53 11.9387 669.616 12.319 669.789 12.641C669.966 12.9583 670.209 13.2057 670.517 13.383C670.83 13.5557 671.184 13.642 671.581 13.642ZM676.891 15V8H678.431H678.473L681.511 12.466L680.741 12.48L683.618 8H685.193V15H683.59L683.611 10.044L683.954 10.184L681.602 13.677H680.489L678.018 10.177L678.354 10.037L678.382 15H676.891ZM690.195 15.21C689.509 15.21 688.9 15.0513 688.368 14.734C687.84 14.4167 687.425 13.978 687.122 13.418C686.818 12.858 686.667 12.2187 686.667 11.5C686.667 10.9587 686.753 10.4617 686.926 10.009C687.098 9.55633 687.341 9.16433 687.654 8.833C687.971 8.50167 688.344 8.245 688.774 8.063C689.208 7.881 689.681 7.79 690.195 7.79C690.871 7.79 691.441 7.93467 691.903 8.224C692.365 8.51333 692.71 8.889 692.939 9.351L692.687 9.736V8H694.262V15H692.687V13.264L692.939 13.649C692.71 14.111 692.365 14.4867 691.903 14.776C691.441 15.0653 690.871 15.21 690.195 15.21ZM690.461 13.642C690.848 13.642 691.193 13.5557 691.497 13.383C691.8 13.2057 692.04 12.9583 692.218 12.641C692.395 12.319 692.484 11.9387 692.484 11.5C692.484 11.0613 692.395 10.681 692.218 10.359C692.04 10.037 691.8 9.78967 691.497 9.617C691.193 9.44433 690.848 9.358 690.461 9.358C690.073 9.358 689.726 9.44433 689.418 9.617C689.114 9.78967 688.874 10.037 688.697 10.359C688.524 10.681 688.438 11.0613 688.438 11.5C688.438 11.9387 688.524 12.319 688.697 12.641C688.874 12.9583 689.114 13.2057 689.418 13.383C689.726 13.5557 690.073 13.642 690.461 13.642Z" fill="#1A1A19"/>
<path d="M786.239 261V251.2H794.331V261H792.511V252.866H788.059V261H786.239ZM799.845 261.21C799.099 261.21 798.436 261.042 797.857 260.706C797.283 260.365 796.833 259.915 796.506 259.355C796.18 258.79 796.016 258.172 796.016 257.5C796.016 257.005 796.11 256.534 796.296 256.086C796.483 255.638 796.747 255.244 797.087 254.903C797.433 254.558 797.839 254.287 798.305 254.091C798.772 253.89 799.285 253.79 799.845 253.79C800.587 253.79 801.245 253.958 801.819 254.294C802.398 254.63 802.851 255.08 803.177 255.645C803.509 256.21 803.674 256.828 803.674 257.5C803.674 257.995 803.579 258.466 803.387 258.914C803.201 259.357 802.937 259.752 802.596 260.097C802.256 260.442 801.852 260.715 801.385 260.916C800.919 261.112 800.405 261.21 799.845 261.21ZM799.845 259.642C800.237 259.642 800.587 259.556 800.895 259.383C801.208 259.206 801.453 258.958 801.63 258.641C801.808 258.319 801.896 257.939 801.896 257.5C801.896 257.061 801.808 256.681 801.63 256.359C801.453 256.037 801.21 255.79 800.902 255.617C800.594 255.444 800.242 255.358 799.845 255.358C799.449 255.358 799.094 255.444 798.781 255.617C798.473 255.79 798.231 256.037 798.053 256.359C797.881 256.681 797.794 257.061 797.794 257.5C797.794 257.939 797.883 258.319 798.06 258.641C798.238 258.958 798.48 259.206 798.788 259.383C799.096 259.556 799.449 259.642 799.845 259.642ZM806.654 261V255.456H804.449V254H810.651V255.456H808.446V261H806.654ZM812.013 263.94V254H813.595V254.924C813.865 254.583 814.213 254.31 814.638 254.105C815.062 253.895 815.576 253.79 816.178 253.79C816.854 253.79 817.456 253.949 817.984 254.266C818.511 254.583 818.924 255.022 819.223 255.582C819.526 256.137 819.678 256.777 819.678 257.5C819.678 258.018 819.591 258.501 819.419 258.949C819.246 259.397 819.003 259.791 818.691 260.132C818.378 260.468 818.005 260.732 817.571 260.923C817.141 261.114 816.668 261.21 816.15 261.21C815.646 261.21 815.198 261.124 814.806 260.951C814.418 260.774 814.082 260.533 813.798 260.23V263.94H812.013ZM815.849 259.642C816.245 259.642 816.598 259.556 816.906 259.383C817.214 259.206 817.456 258.958 817.634 258.641C817.811 258.319 817.9 257.939 817.9 257.5C817.9 257.061 817.811 256.681 817.634 256.359C817.456 256.037 817.211 255.79 816.899 255.617C816.591 255.444 816.241 255.358 815.849 255.358C815.452 255.358 815.1 255.444 814.792 255.617C814.484 255.79 814.241 256.037 814.064 256.359C813.886 256.681 813.798 257.061 813.798 257.5C813.798 257.939 813.884 258.319 814.057 258.641C814.234 258.958 814.477 259.206 814.785 259.383C815.097 259.556 815.452 259.642 815.849 259.642ZM824.461 261.21C823.701 261.21 823.033 261.056 822.459 260.748C821.885 260.435 821.437 260.001 821.115 259.446C820.798 258.891 820.639 258.244 820.639 257.507C820.639 256.966 820.73 256.469 820.912 256.016C821.099 255.563 821.36 255.171 821.696 254.84C822.037 254.504 822.434 254.245 822.886 254.063C823.344 253.881 823.843 253.79 824.384 253.79C824.972 253.79 825.497 253.895 825.959 254.105C826.421 254.31 826.804 254.602 827.107 254.98C827.415 255.353 827.63 255.792 827.751 256.296C827.877 256.795 827.894 257.341 827.8 257.934H822.326C822.322 258.303 822.408 258.625 822.585 258.9C822.767 259.175 823.024 259.392 823.355 259.551C823.691 259.705 824.086 259.782 824.538 259.782C824.94 259.782 825.325 259.724 825.693 259.607C826.062 259.49 826.405 259.318 826.722 259.089L827.352 260.342C827.133 260.519 826.86 260.673 826.533 260.804C826.207 260.935 825.861 261.035 825.497 261.105C825.138 261.175 824.793 261.21 824.461 261.21ZM822.431 256.66H826.064C826.05 256.189 825.894 255.82 825.595 255.554C825.297 255.283 824.879 255.148 824.342 255.148C823.81 255.148 823.372 255.283 823.026 255.554C822.681 255.82 822.483 256.189 822.431 256.66ZM832.8 261.21C832.207 261.21 831.673 261.11 831.197 260.909C830.721 260.704 830.312 260.41 829.972 260.027C829.631 259.64 829.37 259.171 829.188 258.62C829.01 258.065 828.922 257.437 828.922 256.737C828.922 255.962 828.982 255.272 829.104 254.665C829.23 254.054 829.428 253.524 829.699 253.076C829.969 252.628 830.324 252.262 830.763 251.977C831.201 251.692 831.731 251.489 832.352 251.368L835.705 250.71L835.985 252.229L832.723 252.831C832.209 252.934 831.806 253.095 831.512 253.314C831.218 253.533 831.001 253.818 830.861 254.168C830.721 254.513 830.63 254.926 830.588 255.407C830.882 255.048 831.239 254.763 831.659 254.553C832.079 254.343 832.564 254.238 833.115 254.238C833.773 254.238 834.354 254.39 834.858 254.693C835.366 254.996 835.765 255.405 836.055 255.918C836.344 256.431 836.489 256.998 836.489 257.619C836.489 258.114 836.4 258.578 836.223 259.012C836.05 259.446 835.8 259.829 835.474 260.16C835.147 260.487 834.757 260.743 834.305 260.93C833.857 261.117 833.355 261.21 832.8 261.21ZM832.772 259.642C833.14 259.642 833.469 259.56 833.759 259.397C834.053 259.234 834.284 259.003 834.452 258.704C834.624 258.405 834.711 258.051 834.711 257.64C834.711 257.229 834.627 256.875 834.459 256.576C834.291 256.273 834.06 256.042 833.766 255.883C833.472 255.72 833.14 255.638 832.772 255.638C832.398 255.638 832.065 255.72 831.771 255.883C831.477 256.042 831.246 256.273 831.078 256.576C830.91 256.875 830.826 257.229 830.826 257.64C830.826 258.051 830.91 258.405 831.078 258.704C831.246 259.003 831.477 259.234 831.771 259.397C832.065 259.56 832.398 259.642 832.772 259.642ZM838.03 261V254H839.752V258.424L843.287 254H844.869V261H843.147V256.52L839.591 261H838.03ZM848.436 261V255.456H846.231V254H852.433V255.456H850.228V261H848.436ZM857.028 261.21C856.267 261.21 855.6 261.056 855.026 260.748C854.452 260.435 854.004 260.001 853.682 259.446C853.364 258.891 853.206 258.244 853.206 257.507C853.206 256.966 853.297 256.469 853.479 256.016C853.665 255.563 853.927 255.171 854.263 254.84C854.603 254.504 855 254.245 855.453 254.063C855.91 253.881 856.409 253.79 856.951 253.79C857.539 253.79 858.064 253.895 858.526 254.105C858.988 254.31 859.37 254.602 859.674 254.98C859.982 255.353 860.196 255.792 860.318 256.296C860.444 256.795 860.46 257.341 860.367 257.934H854.893C854.888 258.303 854.974 258.625 855.152 258.9C855.334 259.175 855.59 259.392 855.922 259.551C856.258 259.705 856.652 259.782 857.105 259.782C857.506 259.782 857.891 259.724 858.26 259.607C858.628 259.49 858.971 259.318 859.289 259.089L859.919 260.342C859.699 260.519 859.426 260.673 859.1 260.804C858.773 260.935 858.428 261.035 858.064 261.105C857.704 261.175 857.359 261.21 857.028 261.21ZM854.998 256.66H858.631C858.617 256.189 858.46 255.82 858.162 255.554C857.863 255.283 857.445 255.148 856.909 255.148C856.377 255.148 855.938 255.283 855.593 255.554C855.247 255.82 855.049 256.189 854.998 256.66ZM861.733 261.14L861.124 259.537C861.6 259.416 861.948 259.229 862.167 258.977C862.387 258.725 862.527 258.377 862.587 257.934C862.648 257.491 862.678 256.924 862.678 256.233V254H868.53V261H866.738V255.456H864.33V256.233C864.33 256.966 864.293 257.61 864.218 258.165C864.144 258.72 864.011 259.196 863.819 259.593C863.633 259.99 863.369 260.314 863.028 260.566C862.692 260.818 862.261 261.009 861.733 261.14ZM870.597 261V254H872.389V259.684H873.586C874.043 259.684 874.388 259.593 874.622 259.411C874.86 259.224 874.979 258.954 874.979 258.599C874.979 258.249 874.869 257.978 874.65 257.787C874.43 257.591 874.115 257.493 873.705 257.493H872.172V256.191H873.845C874.769 256.191 875.497 256.396 876.029 256.807C876.561 257.213 876.827 257.81 876.827 258.599C876.827 259.098 876.701 259.528 876.449 259.887C876.197 260.246 875.842 260.522 875.385 260.713C874.927 260.904 874.391 261 873.775 261H870.597Z" fill="#1A1A19"/>
<path d="M165.99 324C164.885 324.006 163.994 324.906 164 326.01C164.006 327.115 164.906 328.006 166.01 328L165.99 324ZM750.421 324.427C751.199 323.642 751.192 322.376 750.407 321.599L737.614 308.936C736.829 308.159 735.563 308.166 734.786 308.951C734.009 309.736 734.015 311.002 734.8 311.779L746.172 323.035L734.916 334.406C734.139 335.191 734.145 336.458 734.93 337.235C735.715 338.012 736.982 338.005 737.759 337.22L750.421 324.427ZM166.01 328L749.01 325.02L748.99 321.02L165.99 324L166.01 328Z" fill="#7188FF"/>
<rect x="388.5" y="166.5" width="85" height="29" rx="4.5" fill="white"/>
<rect x="388.5" y="166.5" width="85" height="29" rx="4.5" stroke="#D1D1D1"/>
<path d="M404.926 189.38C400.29 189.38 396.521 185.594 396.521 180.94C396.521 176.286 400.29 172.499 404.926 172.499C409.562 172.499 413.331 176.286 413.331 180.94C413.331 185.594 409.562 189.38 404.926 189.38ZM404.926 173.686C400.945 173.686 397.707 176.939 397.707 180.937C397.707 184.936 400.946 188.189 404.926 188.189C408.906 188.189 412.144 184.936 412.144 180.937C412.144 176.939 408.907 173.688 404.926 173.688V173.686Z" fill="#6D6D6D"/>
<path d="M401.315 183.817C401.157 183.817 401.006 183.754 400.894 183.643C400.783 183.531 400.72 183.38 400.72 183.222V178.273C400.72 178.115 400.783 177.964 400.894 177.853C401.006 177.741 401.157 177.678 401.315 177.678C401.473 177.678 401.624 177.741 401.736 177.853C401.848 177.964 401.91 178.115 401.91 178.273V183.222C401.91 183.38 401.848 183.531 401.736 183.643C401.624 183.754 401.473 183.817 401.315 183.817Z" fill="#6D6D6D"/>
<path d="M403.98 183.817C403.822 183.817 403.671 183.754 403.56 183.643C403.448 183.531 403.385 183.38 403.385 183.222V178.273C403.385 178.115 403.448 177.964 403.56 177.853C403.671 177.741 403.822 177.678 403.98 177.678C404.138 177.678 404.289 177.741 404.401 177.853C404.513 177.964 404.575 178.115 404.575 178.273V183.222C404.575 183.38 404.513 183.531 404.401 183.643C404.289 183.754 404.138 183.817 403.98 183.817Z" fill="#6D6D6D"/>
<path d="M403.975 181.344H401.315C401.157 181.344 401.006 181.282 400.894 181.17C400.783 181.059 400.72 180.907 400.72 180.749C400.72 180.592 400.783 180.44 400.894 180.329C401.006 180.217 401.157 180.154 401.315 180.154H403.976C404.134 180.154 404.285 180.217 404.397 180.329C404.508 180.44 404.571 180.592 404.571 180.749C404.571 180.907 404.508 181.059 404.397 181.17C404.285 181.282 404.134 181.344 403.976 181.344H403.975Z" fill="#6D6D6D"/>
<path d="M408.536 183.817H406.325C406.204 183.817 406.085 183.781 405.985 183.713C405.885 183.644 405.809 183.547 405.766 183.433C405.723 183.32 405.715 183.197 405.744 183.079C405.773 182.962 405.837 182.856 405.928 182.775L407.78 181.118H406.962C406.956 181.118 406.951 181.12 406.945 181.122C406.94 181.125 406.935 181.128 406.931 181.132C406.927 181.137 406.924 181.142 406.922 181.147C406.92 181.153 406.919 181.159 406.919 181.164C406.919 181.322 406.856 181.474 406.745 181.585C406.633 181.697 406.482 181.759 406.324 181.759C406.166 181.759 406.015 181.697 405.903 181.585C405.792 181.474 405.729 181.322 405.729 181.164C405.729 180.837 405.859 180.523 406.09 180.292C406.321 180.06 406.634 179.93 406.961 179.929H407.901C408.228 179.93 408.541 180.06 408.773 180.292C409.004 180.523 409.133 180.837 409.133 181.164C409.133 181.272 409.111 181.378 409.067 181.476C409.023 181.575 408.959 181.662 408.879 181.734L407.884 182.627H408.539C408.697 182.627 408.848 182.689 408.96 182.801C409.071 182.913 409.134 183.064 409.134 183.222C409.134 183.38 409.071 183.531 408.96 183.643C408.848 183.754 408.697 183.817 408.539 183.817H408.536Z" fill="#6D6D6D"/>
<path d="M483.541 185L481.737 182.107L483.415 179.555H484.707L483.041 182.052L484.988 185H483.541ZM479.922 185V179.555H481.132V181.656H482.771V182.657H481.132V185H479.922ZM486.056 185V179.555H489.642V180.556H487.266V185H486.056Z" fill="#1A1A19"/>
<rect x="576.5" y="166.5" width="85" height="29" rx="4.5" fill="white"/>
<rect x="576.5" y="166.5" width="85" height="29" rx="4.5" stroke="#D1D1D1"/>
<path d="M592.926 189.38C588.29 189.38 584.521 185.594 584.521 180.94C584.521 176.286 588.29 172.499 592.926 172.499C597.562 172.499 601.331 176.286 601.331 180.94C601.331 185.594 597.562 189.38 592.926 189.38ZM592.926 173.686C588.945 173.686 585.707 176.939 585.707 180.937C585.707 184.936 588.946 188.189 592.926 188.189C596.906 188.189 600.144 184.936 600.144 180.937C600.144 176.939 596.907 173.688 592.926 173.688V173.686Z" fill="#6D6D6D"/>
<path d="M589.315 183.817C589.157 183.817 589.006 183.754 588.894 183.643C588.783 183.531 588.72 183.38 588.72 183.222V178.273C588.72 178.115 588.783 177.964 588.894 177.853C589.006 177.741 589.157 177.678 589.315 177.678C589.473 177.678 589.624 177.741 589.736 177.853C589.848 177.964 589.91 178.115 589.91 178.273V183.222C589.91 183.38 589.848 183.531 589.736 183.643C589.624 183.754 589.473 183.817 589.315 183.817Z" fill="#6D6D6D"/>
<path d="M591.98 183.817C591.822 183.817 591.671 183.754 591.56 183.643C591.448 183.531 591.385 183.38 591.385 183.222V178.273C591.385 178.115 591.448 177.964 591.56 177.853C591.671 177.741 591.822 177.678 591.98 177.678C592.138 177.678 592.289 177.741 592.401 177.853C592.513 177.964 592.575 178.115 592.575 178.273V183.222C592.575 183.38 592.513 183.531 592.401 183.643C592.289 183.754 592.138 183.817 591.98 183.817Z" fill="#6D6D6D"/>
<path d="M591.975 181.344H589.315C589.157 181.344 589.006 181.282 588.894 181.17C588.783 181.059 588.72 180.907 588.72 180.749C588.72 180.592 588.783 180.44 588.894 180.329C589.006 180.217 589.157 180.154 589.315 180.154H591.976C592.134 180.154 592.285 180.217 592.397 180.329C592.508 180.44 592.571 180.592 592.571 180.749C592.571 180.907 592.508 181.059 592.397 181.17C592.285 181.282 592.134 181.344 591.976 181.344H591.975Z" fill="#6D6D6D"/>
<path d="M596.536 183.817H594.325C594.204 183.817 594.085 183.781 593.985 183.713C593.885 183.644 593.809 183.547 593.766 183.433C593.723 183.32 593.715 183.197 593.744 183.079C593.773 182.962 593.837 182.856 593.928 182.775L595.78 181.118H594.962C594.956 181.118 594.951 181.12 594.945 181.122C594.94 181.125 594.935 181.128 594.931 181.132C594.927 181.137 594.924 181.142 594.922 181.147C594.92 181.153 594.919 181.159 594.919 181.164C594.919 181.322 594.856 181.474 594.745 181.585C594.633 181.697 594.482 181.759 594.324 181.759C594.166 181.759 594.015 181.697 593.903 181.585C593.792 181.474 593.729 181.322 593.729 181.164C593.729 180.837 593.859 180.523 594.09 180.292C594.321 180.06 594.634 179.93 594.961 179.929H595.901C596.228 179.93 596.541 180.06 596.773 180.292C597.004 180.523 597.133 180.837 597.133 181.164C597.133 181.272 597.111 181.378 597.067 181.476C597.023 181.575 596.959 181.662 596.879 181.734L595.884 182.627H596.539C596.697 182.627 596.848 182.689 596.96 182.801C597.071 182.913 597.134 183.064 597.134 183.222C597.134 183.38 597.071 183.531 596.96 183.643C596.848 183.754 596.697 183.817 596.539 183.817H596.536Z" fill="#6D6D6D"/>
<path d="M671.541 185L669.737 182.107L671.415 179.555H672.707L671.041 182.052L672.988 185H671.541ZM667.922 185V179.555H669.132V181.656H670.771V182.657H669.132V185H667.922ZM674.056 185V179.555H677.642V180.556H675.266V185H674.056Z" fill="#1A1A19"/>
<rect x="204.5" y="166.5" width="85" height="29" rx="4.5" fill="white"/>
<rect x="204.5" y="166.5" width="85" height="29" rx="4.5" stroke="#D1D1D1"/>
<path d="M220.926 189.38C216.29 189.38 212.521 185.594 212.521 180.94C212.521 176.286 216.29 172.499 220.926 172.499C225.562 172.499 229.331 176.286 229.331 180.94C229.331 185.594 225.562 189.38 220.926 189.38ZM220.926 173.686C216.945 173.686 213.707 176.939 213.707 180.937C213.707 184.936 216.946 188.189 220.926 188.189C224.906 188.189 228.144 184.936 228.144 180.937C228.144 176.939 224.907 173.688 220.926 173.688V173.686Z" fill="#6D6D6D"/>
<path d="M217.315 183.817C217.157 183.817 217.006 183.754 216.894 183.643C216.783 183.531 216.72 183.38 216.72 183.222V178.273C216.72 178.115 216.783 177.964 216.894 177.853C217.006 177.741 217.157 177.678 217.315 177.678C217.473 177.678 217.624 177.741 217.736 177.853C217.848 177.964 217.91 178.115 217.91 178.273V183.222C217.91 183.38 217.848 183.531 217.736 183.643C217.624 183.754 217.473 183.817 217.315 183.817Z" fill="#6D6D6D"/>
<path d="M219.98 183.817C219.822 183.817 219.671 183.754 219.56 183.643C219.448 183.531 219.385 183.38 219.385 183.222V178.273C219.385 178.115 219.448 177.964 219.56 177.853C219.671 177.741 219.822 177.678 219.98 177.678C220.138 177.678 220.289 177.741 220.401 177.853C220.513 177.964 220.575 178.115 220.575 178.273V183.222C220.575 183.38 220.513 183.531 220.401 183.643C220.289 183.754 220.138 183.817 219.98 183.817Z" fill="#6D6D6D"/>
<path d="M219.975 181.344H217.315C217.157 181.344 217.006 181.282 216.894 181.17C216.783 181.059 216.72 180.907 216.72 180.749C216.72 180.592 216.783 180.44 216.894 180.329C217.006 180.217 217.157 180.154 217.315 180.154H219.976C220.134 180.154 220.285 180.217 220.397 180.329C220.508 180.44 220.571 180.592 220.571 180.749C220.571 180.907 220.508 181.059 220.397 181.17C220.285 181.282 220.134 181.344 219.976 181.344H219.975Z" fill="#6D6D6D"/>
<path d="M224.536 183.817H222.325C222.204 183.817 222.085 183.781 221.985 183.713C221.885 183.644 221.809 183.547 221.766 183.433C221.723 183.32 221.715 183.197 221.744 183.079C221.773 182.962 221.837 182.856 221.928 182.775L223.78 181.118H222.962C222.956 181.118 222.951 181.12 222.945 181.122C222.94 181.125 222.935 181.128 222.931 181.132C222.927 181.137 222.924 181.142 222.922 181.147C222.92 181.153 222.919 181.159 222.919 181.164C222.919 181.322 222.856 181.474 222.745 181.585C222.633 181.697 222.482 181.759 222.324 181.759C222.166 181.759 222.015 181.697 221.903 181.585C221.792 181.474 221.729 181.322 221.729 181.164C221.729 180.837 221.859 180.523 222.09 180.292C222.321 180.06 222.634 179.93 222.961 179.929H223.901C224.228 179.93 224.541 180.06 224.773 180.292C225.004 180.523 225.133 180.837 225.133 181.164C225.133 181.272 225.111 181.378 225.067 181.476C225.023 181.575 224.959 181.662 224.879 181.734L223.884 182.627H224.539C224.697 182.627 224.848 182.689 224.96 182.801C225.071 182.913 225.134 183.064 225.134 183.222C225.134 183.38 225.071 183.531 224.96 183.643C224.848 183.754 224.697 183.817 224.539 183.817H224.536Z" fill="#6D6D6D"/>
<path d="M299.541 185L297.737 182.107L299.415 179.555H300.707L299.041 182.052L300.988 185H299.541ZM295.922 185V179.555H297.132V181.656H298.771V182.657H297.132V185H295.922ZM302.056 185V179.555H305.642V180.556H303.266V185H302.056Z" fill="#1A1A19"/>
<path d="M29.6948 312.302C29.6948 316.784 26.0623 320.419 21.5775 320.419C21.0818 320.419 20.5976 320.376 20.128 320.289C16.336 319.608 13.4602 316.288 13.4602 312.302C13.4602 308.316 16.336 304.997 20.128 304.315C20.5976 304.228 21.0818 304.185 21.5775 304.185C26.0623 304.185 29.6948 307.82 29.6948 312.302Z" fill="#7188FF"/>
<path d="M26.7958 312.302C26.7958 316.288 23.9199 319.608 20.128 320.289C16.336 319.608 13.4602 316.288 13.4602 312.302C13.4602 308.316 16.336 304.997 20.128 304.315C23.9199 304.997 26.7958 308.316 26.7958 312.302Z" fill="#4157C8"/>
<path d="M108.859 308.461H102.998V324.985H108.859V308.461Z" fill="#CCCCCC"/>
<path d="M124.659 338.466H101.566V352.961H124.659V338.466Z" fill="#E6E6E6"/>
<path d="M101.566 320.927H38.0367V359.774H101.566V320.927Z" fill="#CCCCCC"/>
<path d="M68.1272 344.409H62.4741V357.454H68.1272V344.409Z" fill="#738B93"/>
<path d="M62.4742 344.409H61.0247V357.454H62.4742V344.409Z" fill="#4157C8"/>
<path d="M66.3879 346.148H64.2136V355.715H66.3879V346.148Z" fill="#4157C8"/>
<path d="M73.6703 357.565L72.4411 358.794L64.2136 350.567V348.108L73.6703 357.565Z" fill="#808080"/>
<path d="M73.0557 360.208C74.1765 360.208 75.085 359.3 75.085 358.179C75.085 357.058 74.1765 356.15 73.0557 356.15C71.9349 356.15 71.0264 357.058 71.0264 358.179C71.0264 359.3 71.9349 360.208 73.0557 360.208Z" fill="#EF7954"/>
<path d="M128.137 324.985H101.566V331.073H128.137V324.985Z" fill="#999999"/>
<path d="M125.915 331.073H101.566V335.422H125.915V331.073Z" fill="#CCCCCC"/>
<path d="M128.137 335.422H101.566V338.466H128.137V335.422Z" fill="#999999"/>
<path d="M128.137 352.961H101.566V356.005H128.137V352.961Z" fill="#999999"/>
<path d="M38.0368 320.927H28.5094V359.774H38.0368V320.927Z" fill="#808080"/>
<path d="M37.9776 338.466H15.1785V352.961H37.9776V338.466Z" fill="#E6E6E6"/>
<path d="M15.1782 338.466H3.47888V352.961H15.1782V338.466Z" fill="#B3B3B3"/>
<path d="M38.0368 324.985H11.4657V331.073H38.0368V324.985Z" fill="#999999"/>
<path d="M41.7493 331.073H15.1782V335.422H41.7493V331.073Z" fill="#CCCCCC"/>
<path d="M38.0368 335.422H11.4657V338.466H38.0368V335.422Z" fill="#999999"/>
<path d="M11.4657 324.985H0V331.073H11.4657V324.985Z" fill="#808080"/>
<path d="M11.4657 302.428H0V324.986H11.4657V302.428Z" fill="#B3B3B3"/>
<path d="M15.1782 331.073H3.47888V335.422H15.1782V331.073Z" fill="#B3B3B3"/>
<path d="M11.4657 335.422H0V338.466H11.4657V335.422Z" fill="#808080"/>
<path d="M38.0368 352.961H11.4657V356.005H38.0368V352.961Z" fill="#999999"/>
<path d="M11.4657 352.961H0V356.005H11.4657V352.961Z" fill="#808080"/>
<path d="M97.2715 347.811C102.532 342.55 102.532 334.02 97.2715 328.76C92.0106 323.499 83.4811 323.499 78.2202 328.76C72.9593 334.02 72.9593 342.55 78.2202 347.811C83.4811 353.072 92.0106 353.072 97.2715 347.811ZM82.2643 345.331L86.394 341.201C87.2501 341.598 88.2419 341.598 89.0979 341.201L93.2276 345.331C90.0126 347.838 85.4791 347.838 82.2643 345.331ZM94.7914 343.767L90.6617 339.637C91.0583 338.781 91.0583 337.789 90.6617 336.933L94.7914 332.803C97.2987 336.019 97.2987 340.552 94.7914 343.767ZM93.2273 331.24L89.0977 335.369C88.2416 334.973 87.2498 334.973 86.3937 335.369L82.2641 331.24C85.4791 328.732 90.0126 328.732 93.2273 331.24ZM80.7003 332.804L84.83 336.933C84.4334 337.79 84.4334 338.781 84.83 339.637L80.7003 343.767C78.1929 340.552 78.1929 336.019 80.7003 332.804Z" fill="#7188FF"/>
<path d="M38.0367 320.927H35.2716V359.774H38.0367V320.927Z" fill="#808080"/>
<path d="M56.2598 331.745C52.4125 327.898 46.1746 327.898 42.327 331.745C38.4797 335.592 38.4797 341.83 42.327 345.678C46.1743 349.525 52.4122 349.525 56.2598 345.678C60.1071 341.83 60.1071 335.592 56.2598 331.745ZM54.4458 342.72L51.4256 339.7C51.7158 339.074 51.7158 338.348 51.4256 337.722L54.4458 334.702C56.2798 337.054 56.2798 340.369 54.4458 342.72ZM53.3022 333.558L50.282 336.579C49.6561 336.289 48.9304 336.289 48.3045 336.579L45.2843 333.558C47.6357 331.725 50.9511 331.725 53.3022 333.558ZM44.1409 334.702L47.1611 337.723C46.871 338.349 46.871 339.074 47.1611 339.7L44.1409 342.72C42.307 340.369 42.307 337.054 44.1409 334.702ZM45.2846 343.864L48.3048 340.843C48.9307 341.134 49.6563 341.134 50.2822 340.843L53.3025 343.864C50.9511 345.697 47.6357 345.697 45.2846 343.864Z" fill="#7188FF"/>
<path d="M132.518 301.576C127.876 296.934 120.349 296.934 115.707 301.576C111.065 306.219 111.065 313.745 115.707 318.388C120.349 323.03 127.876 323.03 132.518 318.388C137.16 313.745 137.16 306.219 132.518 301.576ZM130.329 314.819L126.685 311.175C127.035 310.42 127.035 309.544 126.685 308.789L130.329 305.145C132.542 307.982 132.542 311.982 130.329 314.819ZM128.95 303.765L125.305 307.409C124.55 307.059 123.675 307.059 122.92 307.409L119.275 303.765C122.112 301.552 126.113 301.552 128.95 303.765ZM117.895 305.145L121.54 308.789C121.19 309.544 121.19 310.42 121.54 311.175L117.895 314.819C115.683 311.982 115.683 307.982 117.895 305.145ZM119.275 316.199L122.92 312.555C123.675 312.905 124.55 312.905 125.305 312.555L128.95 316.199C126.113 318.412 122.112 318.412 119.275 316.199Z" fill="#7188FF"/>
<path d="M22.0956 295.374H12.0179V297.726H22.0956V295.374Z" fill="#808080"/>
<path d="M12.0179 295.374H3.06018V297.726H12.0179V295.374Z" fill="#999999"/>
<path d="M22.0956 300.077H12.0179V302.429H22.0956V300.077Z" fill="#808080"/>
<path d="M12.0179 300.077H3.06018V302.429H12.0179V300.077Z" fill="#999999"/>
<path d="M20.8637 297.726H12.4658V300.077H20.8637V297.726Z" fill="#B3B3B3"/>
<path d="M12.4658 297.726H4.06787V300.077H12.4658V297.726Z" fill="#CCCCCC"/>
<path d="M26.9763 284.938H6.87646V286.29H26.9763V284.938Z" fill="#999999"/>
<path d="M19.2455 289.189H5.90991V295.374H19.2455V289.189Z" fill="#999999"/>
<path d="M14.2205 283.005H10.9351V289.189H14.2205V283.005Z" fill="#808080"/>
<path d="M12.5779 283.005H10.9351V289.189H12.5779V283.005Z" fill="#999999"/>
<path d="M28.136 283.295H28.7158C29.9966 283.295 31.035 284.333 31.035 285.614C31.035 286.895 29.9966 287.933 28.7158 287.933H28.136C26.8552 287.933 25.8168 286.895 25.8168 285.614C25.8168 284.333 26.8552 283.295 28.136 283.295Z" fill="#999999"/>
<path d="M9.29221 289.189H5.90991V295.374H9.29221V289.189Z" fill="#CCCCCC"/>
<path d="M123.064 308.461H108.859V333.102H123.064V308.461Z" fill="#E6E6E6"/>
<path d="M108.859 331.073H105.67V333.102H108.859V331.073Z" fill="#E6E6E6"/>
<path d="M108.859 308.461H97.9443V316.143H108.859V308.461Z" fill="#E6E6E6"/>
<path d="M123.282 311.503H122.92V308.461H123.282C124.122 308.461 124.803 309.142 124.803 309.982C124.803 310.822 124.122 311.503 123.282 311.503Z" fill="#E6E6E6"/>
<path d="M97.9444 316.143C95.8229 316.143 94.1031 314.424 94.1031 312.302C94.1031 310.181 95.8229 308.461 97.9444 308.461C100.066 308.461 101.786 310.181 101.786 312.302C101.786 314.423 100.066 316.143 97.9444 316.143Z" fill="#999999"/>
<path d="M98.7961 312.302C98.7961 313.302 97.9873 314.114 96.9842 314.114H83.2225L79.5176 312.302L83.2225 310.49H96.9842C97.4858 310.49 97.938 310.693 98.2656 311.021C98.5932 311.348 98.7961 311.8 98.7961 312.302Z" fill="#CCCCCC"/>
<path d="M108.859 316.143H102.998V318.897H108.859V316.143Z" fill="#999999"/>
<path d="M98.7961 312.302C98.7961 313.302 97.9873 314.114 96.9842 314.114H83.2225L79.5176 312.302H98.7961Z" fill="#B3B3B3"/>
<path d="M108.859 324.985H107.554V331.073H108.859V324.985Z" fill="#CCCCCC"/>
<path d="M107.554 322.569H104.462V324.985H107.554V322.569Z" fill="#B3B3B3"/>
<path d="M23.1923 302.428H11.4657V324.986H23.1923V302.428Z" fill="#CCCCCC"/>
<path d="M106.829 304.257H92.4307V305.61H106.829V304.257Z" fill="#999999"/>
<path d="M108.472 302.324H105.187V308.509H108.472V302.324Z" fill="#808080"/>
<path d="M108.472 302.324H106.829V308.509H108.472V302.324Z" fill="#999999"/>
<path d="M91.2711 302.615H90.6913C89.4105 302.615 88.3721 303.653 88.3721 304.934C88.3721 306.215 89.4105 307.253 90.6913 307.253H91.2711C92.5519 307.253 93.5903 306.215 93.5903 304.934C93.5903 303.653 92.5522 302.615 91.2711 302.615Z" fill="#999999"/>
<path d="M112.772 359.773H22.1315V366.731H112.772V359.773Z" fill="#999999"/>
<path d="M28.1206 359.773H11.6949V366.731H28.1206V359.773Z" fill="#808080"/>
<path d="M52.7624 302.083H45.5148V320.926H52.7624V302.083Z" fill="#808080"/>
<path d="M62.625 302.083H52.7625V320.926H62.625V302.083Z" fill="#999999"/>
<path d="M35.0783 366.731H27.8307V379.777H35.0783V366.731Z" fill="#B3B3B3"/>
<path d="M44.9408 366.731H35.0782V379.777H44.9408V366.731Z" fill="#CCCCCC"/>
<path d="M33.8219 379.777H19.6094V384.995H33.8219V379.777Z" fill="#B3B3B3"/>
<path d="M53.1622 379.777H33.8219V384.995H53.1622V379.777Z" fill="#CCCCCC"/>
<path d="M93.2584 379.777H79.0459V384.995H93.2584V379.777Z" fill="#B3B3B3"/>
<path d="M112.599 379.777H93.2587V384.995H112.599V379.777Z" fill="#CCCCCC"/>
<path d="M94.5152 366.731H87.2676V379.777H94.5152V366.731Z" fill="#B3B3B3"/>
<path d="M104.378 366.731H94.5151V379.777H104.378V366.731Z" fill="#CCCCCC"/>
<path d="M68.1273 298.314H54.2119V302.083H68.1273V298.314Z" fill="#999999"/>
<path d="M59.4301 298.314H45.5148V302.083H59.4301V298.314Z" fill="#808080"/>
<path d="M836.034 305.105C836.034 305.105 835.641 311.396 831.903 313.747V318.641H829.36C829.36 318.641 830.015 309.931 825.853 311.087C821.691 312.244 826.735 330.301 826.735 330.301C826.735 330.301 814.599 318.564 817.706 302.388C820.813 286.212 832.597 281.712 841.917 283.212C851.237 284.712 865.056 285.676 861.307 299.603C861.307 299.603 861.115 302.766 853.102 304.832C845.089 306.898 836.034 305.105 836.034 305.105Z" fill="#FFD651"/>
<path d="M860.423 328.563C860.423 328.563 864.57 331.596 867.337 337.606L863.88 342.766L869.73 343.458C869.73 343.458 873.399 372.336 858.779 396.299C858.779 396.299 869.74 352.477 857.79 333.644L855.701 327.922L860.423 328.563Z" fill="#FFD651"/>
<path d="M858.066 396.662C849.423 384.706 827.973 367.452 827.973 367.452L829.897 361.08L824.85 364.329C816.491 353.635 819.582 343.667 819.582 343.667L819.929 342.5C821.065 341.081 823.935 337.863 826.333 337.642C825.86 338.052 825.449 338.494 825.166 338.936C822.894 342.185 824.661 346.475 827.815 350.765C831.411 355.717 836.837 360.67 840.023 364.171C842.673 367.073 846.206 373.161 849.455 379.281C853.839 387.482 857.656 395.779 858.066 396.662Z" fill="#FFD651"/>
<path d="M826.326 337.643C826.326 337.643 832.39 343.664 847.341 346.93L844.586 355.4C844.586 355.4 832.761 353.828 827.804 350.762C822.848 347.695 821.623 342.745 821.623 342.745L826.326 337.643Z" fill="#FFD651"/>
<path d="M847.341 346.929L857.085 332.961L860.541 337.643L854.687 352.687C852.41 350.12 849.958 348.215 847.341 346.929Z" fill="#FFD651"/>
<path d="M844.896 354.444L848.449 356.085L846.673 358.992L849.381 379.102L852.518 388.056L858.104 396.736L858.779 396.299L862.142 386.7L861.637 381.305L852.712 357.248L850.278 355.226L853.272 351.199L850.993 346.996L847.341 346.929L844.234 351.966L844.896 354.444Z" fill="#FFD651"/>
<path d="M826.735 330.301L826.325 337.643L831.503 348.849L850.496 349.769L854.964 342.824L856.87 333.772L847.341 331.565L826.735 330.301Z" fill="#FFD651"/>
<path d="M877.939 376.947C875.857 380.354 869.99 388.871 858.792 396.284L858.098 396.725C848.225 403.129 834.345 408.586 815.418 409.059C815.418 409.059 796.303 407.387 796.366 397.545C796.46 387.672 793.842 360.922 805.766 352.185C817.69 343.447 819.393 343.163 819.393 343.163C819.393 343.163 819.582 342.911 819.929 342.5C821.065 341.081 823.935 337.863 826.333 337.643L826.743 330.293L840.685 326.287L861.126 326.097C861.126 326.097 870.337 323.637 874.659 334.425C878.98 345.213 881.914 370.543 877.939 376.947Z" fill="#B3B3B3"/>
<path d="M826.735 330.301L826.325 337.643L831.503 348.849L850.496 349.769L854.964 342.824L856.87 333.772L847.341 331.565L826.735 330.301Z" fill="#F5C9C6"/>
<path d="M866.173 358.43C866.173 358.43 865.037 370.732 864.848 370.858C864.627 371.016 861.252 386.252 861.252 386.252L851.473 385.716C851.473 385.716 845.385 378.839 845.101 378.303C844.817 377.735 832.452 358.903 832.231 358.43C832.042 357.925 825.733 351.932 825.67 351.648C825.607 351.364 825.228 346.506 825.228 346.506L831.411 346.191L848.187 350.087L860.905 337.295L866.173 358.43Z" fill="white"/>
<path d="M844.896 354.444L848.572 355.4L846.673 358.992L849.381 379.102L852.518 388.056L858.779 396.299L862.142 386.7L861.637 381.305L852.793 356.993L850.335 354.793L853.272 351.199L850.993 346.996L847.341 346.929L844.234 351.966L844.896 354.444Z" fill="#4157C8"/>
<path d="M847.341 346.93L857.25 332.472L860.541 337.643L854.687 352.687C852.41 350.12 849.958 348.215 847.341 346.93Z" fill="#E5EAF6"/>
<path d="M860.423 328.563C860.423 328.563 864.57 331.596 867.337 337.606L863.88 342.766L869.73 343.458C869.73 343.458 873.399 372.336 858.779 396.299C858.779 396.299 869.74 352.477 857.79 333.644L855.701 327.922L860.423 328.563Z" fill="#656FEA"/>
<path d="M860.381 299.809C860.381 299.809 866.416 331.957 852.141 336.646C837.866 341.335 826.116 329.682 826.116 329.682L820.152 315.911C820.152 315.911 820.986 306.722 821.299 306.002C821.611 305.283 832.448 294.759 832.448 294.759L847.244 293.092L860.381 299.809Z" fill="#F4D6D4"/>
<path d="M861.298 299.605C861.298 299.605 861.103 302.773 853.086 304.846C845.108 306.879 836.035 305.119 836.035 305.119C836.035 305.119 835.644 311.377 831.889 313.762V318.651H829.347C829.347 318.651 830.012 309.929 825.867 311.103C821.682 312.237 826.727 330.305 826.727 330.305C826.727 330.305 814.603 318.573 817.693 302.382C820.822 286.23 832.593 281.694 841.901 283.219C851.248 284.705 865.053 285.683 861.298 299.605Z" fill="#8A4852"/>
<path d="M826.326 337.643C826.326 337.643 832.39 343.664 847.341 346.93L844.586 355.4C844.586 355.4 832.761 353.828 827.804 350.762C822.848 347.695 821.623 342.745 821.623 342.745L826.326 337.643Z" fill="#E5EAF6"/>
<path d="M858.792 396.283C849.551 384.623 827.957 367.459 827.973 367.452L829.897 361.08L824.85 364.329C816.491 353.635 819.582 343.667 819.582 343.667L819.929 342.5C821.065 341.081 823.935 337.863 826.333 337.642C825.86 338.052 825.449 338.494 825.166 338.936C822.894 342.185 824.661 346.475 827.815 350.765C831.411 355.717 836.837 360.67 840.023 364.171C842.673 367.073 846.206 373.161 849.455 379.281C853.839 387.482 858.382 395.4 858.792 396.283Z" fill="#656FEA"/>
<g clip-path="url(#clip0_87_2171)">
<path d="M453.864 48.5164V69.8425C453.864 70.8239 453.068 71.6197 452.087 71.6197C451.105 71.6197 450.31 70.8239 450.31 69.8425V48.5164C450.31 46.8831 448.981 45.5544 447.348 45.5544H414.174C412.541 45.5544 411.212 46.8831 411.212 48.5164V50.8858C411.212 51.8673 410.416 52.6631 409.435 52.6631C408.453 52.6631 407.657 51.8673 407.657 50.8858V48.5164C407.657 44.9232 410.581 42 414.174 42H447.348C450.941 42 453.864 44.9232 453.864 48.5164ZM481.114 80.5055C480.133 80.5055 479.337 81.3013 479.337 82.2827V85.2447H468.674C467.692 85.2447 466.897 86.0405 466.897 87.0219C466.897 88.0033 467.692 88.7991 468.674 88.7991H479.337V94.723H466.897C465.915 94.723 465.119 95.5188 465.119 96.5002C465.119 97.4816 465.915 98.2774 466.897 98.2774H479.337V104.201H466.897C465.915 104.201 465.119 104.997 465.119 105.979C465.119 106.96 465.915 107.756 466.897 107.756H479.337V113.68H466.897C465.915 113.68 465.119 114.475 465.119 115.457C465.119 116.438 465.915 117.234 466.897 117.234H479.337V123.158H468.674C467.692 123.158 466.897 123.954 466.897 124.935C466.897 125.917 467.692 126.712 468.674 126.712H479.337V139.153C479.337 140.134 480.133 140.93 481.114 140.93C482.096 140.93 482.891 140.134 482.891 139.153V82.2832C482.891 81.3011 482.096 80.5055 481.114 80.5055Z" fill="#344966"/>
<path d="M473.413 86.2319V143.891H437.869H430.761H423.652V84.6523H431.366C431.635 84.3521 431.98 84.1175 432.381 83.984L451.337 77.665C451.824 77.503 452.35 77.503 452.836 77.665L471.793 83.984C472.76 84.3065 473.413 85.2119 473.413 86.2319Z" fill="#BFBFBF"/>
<path d="M430.761 65.0342V141.522H388.109V65.0342C388.109 64.0142 388.761 63.109 389.729 62.7863L402.326 58.5872V51.4784C402.326 50.1697 403.387 49.1089 404.696 49.1089H414.174C415.483 49.1089 416.543 50.1697 416.543 51.4784V58.587L429.141 62.786C430.108 63.1086 430.761 64.014 430.761 65.0342Z" fill="#5D7EAC"/>
<path d="M430.761 67.4039V141.522H423.652V63.3264L429.14 65.156C430.108 65.4785 430.761 66.384 430.761 67.4039Z" fill="#344966"/>
<path d="M430.761 65.0341V68.0653H409.435V141.522H397.587V68.0653H388.109V65.0341C388.109 64.0142 388.761 63.109 389.729 62.7862L408.685 56.4672C409.172 56.3052 409.698 56.3052 410.184 56.4672L429.141 62.7862C430.108 63.1085 430.761 64.014 430.761 65.0341Z" fill="#8A93FF"/>
<path d="M459.196 82.2824H444.978V70.4347C444.978 69.126 446.039 68.0652 447.348 68.0652H456.826C458.135 68.0652 459.195 69.126 459.195 70.4347L459.196 82.2824ZM482.891 139.152H473.413V86.3602C473.413 85.3402 472.761 84.435 471.793 84.1122L466.305 82.2827V139.152H388.109C386.8 139.152 385.739 140.213 385.739 141.522V151H485.261V141.522C485.261 140.213 484.2 139.152 482.891 139.152Z" fill="#999999"/>
<path d="M473.413 83.8623V87.0216H452.087V139.152H440.239V87.0216H430.761V83.8623C430.761 82.8423 431.413 81.9371 432.381 81.6144L451.337 75.2953C451.824 75.1333 452.35 75.1333 452.836 75.2953L471.793 81.6144C472.76 81.9367 473.413 82.8421 473.413 83.8623Z" fill="#E2E2E2"/>
<path d="M490 149.223C490 150.204 489.204 151 488.223 151H382.777C381.796 151 381 150.204 381 149.223C381 148.242 381.796 147.446 382.777 147.446H488.223C489.204 147.446 490 148.242 490 149.223Z" fill="#6D6D6D"/>
</g>
<path d="M251.152 220.002C251.153 219.45 250.706 219.001 250.154 219C249.602 218.999 249.153 219.446 249.152 219.998L251.152 220.002ZM249.291 293.414C249.681 293.805 250.314 293.806 250.706 293.417L257.083 287.066C257.474 286.676 257.476 286.043 257.086 285.652C256.696 285.26 256.063 285.259 255.672 285.649L250.003 291.294L244.358 285.625C243.968 285.234 243.335 285.232 242.944 285.622C242.552 286.012 242.551 286.645 242.941 287.036L249.291 293.414ZM249.152 219.998L249 292.706L251 292.71L251.152 220.002L249.152 219.998Z" fill="#7F8499"/>
<path d="M437.152 220.002C437.153 219.45 436.706 219.001 436.154 219C435.602 218.999 435.153 219.446 435.152 219.998L437.152 220.002ZM435.291 293.414C435.681 293.805 436.314 293.806 436.706 293.417L443.083 287.066C443.474 286.676 443.476 286.043 443.086 285.652C442.696 285.26 442.063 285.259 441.672 285.649L436.003 291.294L430.358 285.625C429.968 285.234 429.335 285.232 428.944 285.622C428.552 286.012 428.551 286.645 428.941 287.036L435.291 293.414ZM435.152 219.998L435 292.706L437 292.71L437.152 220.002L435.152 219.998Z" fill="#7F8499"/>
<path d="M624.152 220.002C624.153 219.45 623.706 219.001 623.154 219C622.602 218.999 622.153 219.446 622.152 219.998L624.152 220.002ZM622.291 293.414C622.681 293.805 623.314 293.806 623.706 293.417L630.083 287.066C630.474 286.676 630.476 286.043 630.086 285.652C629.696 285.26 629.063 285.259 628.672 285.649L623.003 291.294L617.358 285.625C616.968 285.234 616.335 285.232 615.944 285.622C615.552 286.012 615.551 286.645 615.941 287.036L622.291 293.414ZM622.152 219.998L622 292.706L624 292.71L624.152 220.002L622.152 219.998Z" fill="#7F8499"/>
<path d="M299.022 148.239C299.022 149.212 298.233 150 297.261 150H212.739C211.767 150 210.978 149.212 210.978 148.239C210.978 147.267 211.767 146.478 212.739 146.478H297.261C298.233 146.478 299.022 147.267 299.022 148.239Z" fill="#BFBFBF"/>
<path d="M287.869 65.4782V110.087V150H278.478L275.131 121.551L264.391 131.217H245.609L234.869 121.551L231.522 150H222.13V110.087V65.4782C222.13 62.8847 224.233 60.7825 226.826 60.7825H231.522V56.087C231.522 53.4936 233.624 51.3914 236.217 51.3914H273.783C276.376 51.3914 278.478 53.4936 278.478 56.087V60.7827H283.174C285.767 60.7825 287.869 62.8849 287.869 65.4782Z" fill="#BFBFBF"/>
<path d="M243.261 110.087H231.522V60.7825H243.261V110.087Z" fill="#E2E2E2"/>
<path d="M278.478 56.0872V60.7828H231.522V56.0872C231.522 53.4937 233.624 51.3915 236.217 51.3915H250.304V46.6958H259.696V51.3915H273.783C276.376 51.3915 278.478 53.4937 278.478 56.0872ZM283.174 60.7826L278.478 60.7828V110.087H222.13L245.609 131.217H264.391L278.478 118.539L287.869 110.087V65.4783C287.869 62.885 285.767 60.7826 283.174 60.7826Z" fill="#999999"/>
<path d="M266.739 51.3914H273.783C276.376 51.3914 278.478 53.4936 278.478 56.087V60.7827H271.435V56.087C271.435 53.4936 269.333 51.3914 266.739 51.3914ZM259.696 44.3477C259.696 43.0511 258.645 42 257.348 42H252.652C251.356 42 250.305 43.0511 250.305 44.3477V51.3911H259.696V44.3477H259.696ZM283.174 110.087H278.478L255 131.217H245.609V135.913C245.609 137.21 246.66 138.261 247.956 138.261H262.043C263.34 138.261 264.391 137.21 264.391 135.913V131.217L283.174 114.313V150H287.869V110.087H283.174ZM226.826 150H231.522L234.869 121.551L230.623 117.73L226.826 150Z" fill="#6D6D6D"/>
<path d="M264.391 131.217V135.913C264.391 137.21 263.34 138.261 262.044 138.261H252.652C253.949 138.261 255 137.21 255 135.913V131.217H264.391ZM259.696 44.3477C259.696 43.0511 258.645 42 257.348 42H255V51.3914H259.696V44.3477Z" fill="#444444"/>
<path d="M622.925 89.9779V110.349L570.196 79.8147V59.4885L622.925 89.9779Z" fill="#808080"/>
<path d="M570.196 79.8147V59.4885L622.925 89.9779" fill="#999999"/>
<path d="M622.995 89.9779V110.349L675.726 79.8147V59.4885L622.995 89.9779Z" fill="#999999"/>
<path d="M622.925 110.305V130.674L570.196 100.14V79.8149L622.925 110.305Z" fill="#656FEA"/>
<path d="M570.196 100.14V79.8149L622.925 110.305" fill="#8A93FF"/>
<path d="M622.995 110.305V130.674L675.726 100.14V79.8149L622.995 110.305Z" fill="#656FEA"/>
<path d="M622.925 130.629V151L570.196 120.466V100.14L622.925 130.629Z" fill="#6E4F3E"/>
<path d="M570.196 120.466V100.14L622.925 130.629" fill="#846756"/>
<path d="M622.995 130.629V151L675.726 120.466V100.14L622.995 130.629Z" fill="#6E4F3E"/>
<path d="M570.196 59.4887L622.925 89.9781L675.804 59.4887L623.005 29L570.196 59.4887Z" fill="#BFBFBF"/>
<path d="M570.196 59.4885L622.925 89.9779L675.804 59.4885" fill="#E2E2E2"/>
<path d="M636.423 110.95L628.751 115.385V113.678L636.423 109.249V110.95Z" fill="#E5EAF6"/>
<path d="M644.095 112.051L636.423 116.483V114.778L644.095 110.349V112.051Z" fill="#E5EAF6"/>
<path d="M662.158 98.7753L654.487 103.209V101.502L662.158 97.074V98.7753Z" fill="#E5EAF6"/>
<path d="M672.351 96.7616L664.679 101.196V99.4885L672.351 95.0603V96.7616Z" fill="#E5EAF6"/>
<path d="M646.457 130.521L638.786 134.953V133.246L646.457 128.818V130.521Z" fill="#808080"/>
<path d="M658.327 120.37L650.656 124.804V123.097L658.327 118.668V120.37Z" fill="#808080"/>
<path d="M666.942 119.1L659.269 123.535V121.83L666.942 117.399V119.1Z" fill="#808080"/>
<defs>
<clipPath id="clip0_87_2171">
<rect width="109" height="109" fill="white" transform="translate(381 42)"/>
</clipPath>
</defs>
</svg>
